<?xml version="1.0" encoding="utf-8"?>
<!-- Generator: Adobe Illustrator 27.5.0, SVG Export Plug-In . SVG Version: 6.00 Build 0)  -->
<svg version="1.1" id="Capa_1" xmlns="http://www.w3.org/2000/svg" xmlns:xlink="http://www.w3.org/1999/xlink" x="0px" y="0px"
	 viewBox="0 0 1700.79 1700.79" style="enable-background:new 0 0 1700.79 1700.79;" xml:space="preserve">
<polygon style="fill-rule:evenodd;clip-rule:evenodd;fill:#DEDEE0;" points="-1,0.79 1699.787,0.79 1699.787,1701.578 -1,1701.578 
	-1,0.79 "/>
<path style="fill-rule:evenodd;clip-rule:evenodd;fill:#DEDEE0;" d="M849.394,515.159c458.118,0,829.497,146.683,829.497,327.625
	c0,180.941-371.379,327.624-829.497,327.624S19.897,1023.725,19.897,842.783C19.897,661.841,391.275,515.159,849.394,515.159
	L849.394,515.159z"/>
<path style="fill-rule:evenodd;clip-rule:evenodd;fill:#DEDEE0;" d="M849.394,516.69c455.976,0,825.618,145.997,825.618,326.092
	c0,180.095-369.643,326.092-825.618,326.092c-455.975,0-825.617-145.997-825.617-326.092
	C23.777,662.687,393.418,516.69,849.394,516.69L849.394,516.69z"/>
<path style="fill-rule:evenodd;clip-rule:evenodd;fill:#DEDEE0;" d="M849.394,518.223c453.833,0,821.737,145.31,821.737,324.56
	c0,179.248-367.904,324.559-821.737,324.559c-453.833,0-821.737-145.311-821.737-324.559
	C27.657,663.533,395.561,518.223,849.394,518.223L849.394,518.223z"/>
<path style="fill-rule:evenodd;clip-rule:evenodd;fill:#DEE0E3;" d="M849.394,519.756c451.69,0,817.856,144.624,817.856,323.027
	s-366.166,323.027-817.856,323.027c-451.689,0-817.856-144.624-817.856-323.027S397.704,519.756,849.394,519.756L849.394,519.756z"
	/>
<path style="fill-rule:evenodd;clip-rule:evenodd;fill:#DEE0E3;" d="M849.394,521.288c449.548,0,813.978,143.938,813.978,321.495
	c0,177.556-364.43,321.495-813.978,321.495c-449.546,0-813.977-143.939-813.977-321.495
	C35.417,665.226,399.847,521.288,849.394,521.288L849.394,521.288z"/>
<path style="fill-rule:evenodd;clip-rule:evenodd;fill:#E0E0E3;" d="M849.394,522.82c447.403,0,810.097,143.252,810.097,319.962
	c0,176.709-362.693,319.961-810.097,319.961c-447.404,0-810.097-143.252-810.097-319.961
	C39.297,666.072,401.99,522.82,849.394,522.82L849.394,522.82z"/>
<path style="fill-rule:evenodd;clip-rule:evenodd;fill:#E0E0E3;" d="M849.394,524.353c445.261,0,806.218,142.566,806.218,318.43
	s-360.957,318.429-806.218,318.429S43.177,1018.646,43.177,842.783S404.133,524.353,849.394,524.353L849.394,524.353z"/>
<path style="fill-rule:evenodd;clip-rule:evenodd;fill:#E0E3E3;" d="M849.394,525.885c443.118,0,802.337,141.88,802.337,316.898
	c0,175.017-359.219,316.897-802.337,316.897c-443.118,0-802.336-141.88-802.336-316.897
	C47.057,667.765,406.276,525.885,849.394,525.885L849.394,525.885z"/>
<path style="fill-rule:evenodd;clip-rule:evenodd;fill:#E0E3E3;" d="M849.394,527.418c440.976,0,798.458,141.193,798.458,315.365
	c0,174.17-357.482,315.365-798.458,315.365c-440.975,0-798.457-141.194-798.457-315.365
	C50.937,668.611,408.418,527.418,849.394,527.418L849.394,527.418z"/>
<path style="fill-rule:evenodd;clip-rule:evenodd;fill:#E3E3E6;" d="M849.394,528.95c438.833,0,794.577,140.508,794.577,313.833
	s-355.744,313.832-794.577,313.832c-438.832,0-794.577-140.507-794.577-313.832S410.561,528.95,849.394,528.95L849.394,528.95z"/>
<path style="fill-rule:evenodd;clip-rule:evenodd;fill:#E3E3E6;" d="M849.394,530.483c436.69,0,790.698,139.821,790.698,312.3
	c0,172.478-354.008,312.299-790.698,312.299c-436.689,0-790.697-139.821-790.697-312.299
	C58.697,670.304,412.704,530.483,849.394,530.483L849.394,530.483z"/>
<path style="fill-rule:evenodd;clip-rule:evenodd;fill:#E3E3E6;" d="M849.394,532.015c434.548,0,786.817,139.135,786.817,310.768
	c0,171.631-352.27,310.767-786.817,310.767c-434.546,0-786.817-139.136-786.817-310.767
	C62.577,671.15,414.847,532.015,849.394,532.015L849.394,532.015z"/>
<path style="fill-rule:evenodd;clip-rule:evenodd;fill:#E3E3E6;" d="M849.394,533.548c432.405,0,782.938,138.449,782.938,309.235
	s-350.533,309.235-782.938,309.235c-432.404,0-782.937-138.449-782.937-309.235S416.99,533.548,849.394,533.548L849.394,533.548z"/>
<path style="fill-rule:evenodd;clip-rule:evenodd;fill:#E3E6E8;" d="M849.394,535.081c430.261,0,779.058,137.763,779.058,307.702
	c0,169.939-348.797,307.702-779.058,307.702S70.337,1012.722,70.337,842.783C70.337,672.843,419.133,535.081,849.394,535.081
	L849.394,535.081z"/>
<path style="fill-rule:evenodd;clip-rule:evenodd;fill:#E6E6E8;" d="M849.394,536.613c428.118,0,775.177,137.077,775.177,306.17
	c0,169.092-347.059,306.169-775.177,306.169S74.217,1011.875,74.217,842.783C74.217,673.69,421.275,536.613,849.394,536.613
	L849.394,536.613z"/>
<path style="fill-rule:evenodd;clip-rule:evenodd;fill:#E6E6E8;" d="M849.394,538.146c425.976,0,771.298,136.391,771.298,304.637
	s-345.322,304.637-771.298,304.637c-425.975,0-771.297-136.391-771.297-304.637S423.418,538.146,849.394,538.146L849.394,538.146z"
	/>
<path style="fill-rule:evenodd;clip-rule:evenodd;fill:#E6E8E8;" d="M849.394,539.678c423.833,0,767.417,135.705,767.417,303.105
	c0,167.4-343.584,303.105-767.417,303.105c-423.833,0-767.417-135.705-767.417-303.105
	C81.977,675.382,425.561,539.678,849.394,539.678L849.394,539.678z"/>
<path style="fill-rule:evenodd;clip-rule:evenodd;fill:#E6E8E8;" d="M849.394,541.21c421.69,0,763.538,135.019,763.538,301.573
	c0,166.553-341.848,301.572-763.538,301.572c-421.689,0-763.537-135.019-763.537-301.572
	C85.857,676.229,427.704,541.21,849.394,541.21L849.394,541.21z"/>
<path style="fill-rule:evenodd;clip-rule:evenodd;fill:#E8E8E8;" d="M849.394,542.743c419.548,0,759.657,134.333,759.657,300.04
	c0,165.706-340.109,300.04-759.657,300.04c-419.547,0-759.657-134.333-759.657-300.04
	C89.737,677.075,429.847,542.743,849.394,542.743L849.394,542.743z"/>
<path style="fill-rule:evenodd;clip-rule:evenodd;fill:#E8E8EB;" d="M849.394,544.275c417.405,0,755.778,133.646,755.778,298.508
	c0,164.861-338.373,298.507-755.778,298.507c-417.404,0-755.777-133.647-755.777-298.507
	C93.617,677.921,431.99,544.275,849.394,544.275L849.394,544.275z"/>
<path style="fill-rule:evenodd;clip-rule:evenodd;fill:#E8E8EB;" d="M849.394,545.808c415.263,0,751.897,132.96,751.897,296.975
	c0,164.014-336.635,296.975-751.897,296.975c-415.261,0-751.897-132.961-751.897-296.975
	C97.497,678.768,434.133,545.808,849.394,545.808L849.394,545.808z"/>
<path style="fill-rule:evenodd;clip-rule:evenodd;fill:#E8E8EB;" d="M849.394,547.34c413.118,0,748.017,132.274,748.017,295.443
	s-334.898,295.443-748.017,295.443s-748.017-132.274-748.017-295.443S436.275,547.34,849.394,547.34L849.394,547.34z"/>
<path style="fill-rule:evenodd;clip-rule:evenodd;fill:#E8EBEB;" d="M849.394,548.872c410.976,0,744.138,131.588,744.138,293.91
	c0,162.322-333.162,293.91-744.138,293.91c-410.975,0-744.137-131.588-744.137-293.91
	C105.257,680.46,438.418,548.872,849.394,548.872L849.394,548.872z"/>
<path style="fill-rule:evenodd;clip-rule:evenodd;fill:#EBEBED;" d="M849.394,550.405c408.833,0,740.259,130.901,740.259,292.378
	c0,161.475-331.426,292.377-740.259,292.377c-408.833,0-740.257-130.902-740.257-292.377
	C109.136,681.307,440.561,550.405,849.394,550.405L849.394,550.405z"/>
<path style="fill-rule:evenodd;clip-rule:evenodd;fill:#EBEBED;" d="M849.394,551.938c406.69,0,736.378,130.216,736.378,290.845
	s-329.688,290.845-736.378,290.845c-406.689,0-736.377-130.216-736.377-290.845S442.704,551.938,849.394,551.938L849.394,551.938z"
	/>
<path style="fill-rule:evenodd;clip-rule:evenodd;fill:#EBEDED;" d="M849.394,553.47c404.548,0,732.497,129.53,732.497,289.313
	c0,159.783-327.949,289.313-732.497,289.313c-404.546,0-732.497-129.53-732.497-289.313C116.896,683,444.847,553.47,849.394,553.47
	L849.394,553.47z"/>
<path style="fill-rule:evenodd;clip-rule:evenodd;fill:#EBEDED;" d="M849.394,555.002c402.405,0,728.618,128.843,728.618,287.78
	c0,158.936-326.213,287.78-728.618,287.78c-402.404,0-728.617-128.844-728.617-287.78
	C120.776,683.846,446.99,555.002,849.394,555.002L849.394,555.002z"/>
<path style="fill-rule:evenodd;clip-rule:evenodd;fill:#EDEDED;" d="M849.394,556.535c400.261,0,724.737,128.157,724.737,286.248
	c0,158.09-324.477,286.248-724.737,286.248s-724.737-128.157-724.737-286.248C124.656,684.692,449.133,556.535,849.394,556.535
	L849.394,556.535z"/>
<path style="fill-rule:evenodd;clip-rule:evenodd;fill:#EDEDED;" d="M849.394,558.067c398.118,0,720.858,127.471,720.858,284.715
	c0,157.244-322.74,284.715-720.858,284.715s-720.857-127.472-720.857-284.715C128.537,685.539,451.275,558.067,849.394,558.067
	L849.394,558.067z"/>
<path style="fill-rule:evenodd;clip-rule:evenodd;fill:#EDEDF0;" d="M849.394,559.6c395.976,0,716.978,126.785,716.978,283.183
	c0,156.397-321.002,283.182-716.978,283.182c-395.975,0-716.977-126.785-716.977-283.182
	C132.417,686.385,453.418,559.6,849.394,559.6L849.394,559.6z"/>
<path style="fill-rule:evenodd;clip-rule:evenodd;fill:#EDEDF0;" d="M849.394,561.132c393.833,0,713.099,126.1,713.099,281.651
	s-319.266,281.65-713.099,281.65c-393.833,0-713.097-126.099-713.097-281.65S455.561,561.132,849.394,561.132L849.394,561.132z"/>
<path style="fill-rule:evenodd;clip-rule:evenodd;fill:#EDF0F0;" d="M849.394,562.665c391.69,0,709.218,125.413,709.218,280.118
	c0,154.705-317.527,280.118-709.218,280.118c-391.689,0-709.217-125.413-709.217-280.118
	C140.176,688.078,457.704,562.665,849.394,562.665L849.394,562.665z"/>
<path style="fill-rule:evenodd;clip-rule:evenodd;fill:#F0F0F0;" d="M849.394,564.197c389.548,0,705.337,124.727,705.337,278.586
	c0,153.859-315.789,278.585-705.337,278.585c-389.547,0-705.337-124.727-705.337-278.585
	C144.057,688.924,459.847,564.197,849.394,564.197L849.394,564.197z"/>
<path style="fill-rule:evenodd;clip-rule:evenodd;fill:#F0F0F2;" d="M849.394,565.729c387.405,0,701.458,124.041,701.458,277.053
	s-314.053,277.053-701.458,277.053c-387.404,0-701.458-124.041-701.458-277.053S461.99,565.729,849.394,565.729L849.394,565.729z"/>
<path style="fill-rule:evenodd;clip-rule:evenodd;fill:#F0F0F2;" d="M849.394,567.263c385.261,0,697.577,123.354,697.577,275.52
	s-312.316,275.521-697.577,275.521c-385.261,0-697.577-123.355-697.577-275.521S464.132,567.263,849.394,567.263L849.394,567.263z"
	/>
<path style="fill-rule:evenodd;clip-rule:evenodd;fill:#F2F2F2;" d="M849.394,568.795c383.118,0,693.698,122.668,693.698,273.988
	c0,151.32-310.58,273.988-693.698,273.988S155.696,994.103,155.696,842.783C155.696,691.463,466.275,568.795,849.394,568.795
	L849.394,568.795z"/>
<path style="fill-rule:evenodd;clip-rule:evenodd;fill:#F2F2F2;" d="M849.394,570.327c380.976,0,689.817,121.982,689.817,272.456
	s-308.842,272.455-689.817,272.455c-380.975,0-689.817-121.982-689.817-272.455S468.418,570.327,849.394,570.327L849.394,570.327z"
	/>
<path style="fill-rule:evenodd;clip-rule:evenodd;fill:#F2F2F2;" d="M849.394,571.859c378.833,0,685.938,121.297,685.938,270.923
	s-307.105,270.923-685.938,270.923c-378.833,0-685.937-121.297-685.937-270.923S470.561,571.859,849.394,571.859L849.394,571.859z"
	/>
<path style="fill-rule:evenodd;clip-rule:evenodd;fill:#F2F2F2;" d="M849.394,573.392c376.69,0,682.058,120.61,682.058,269.391
	c0,148.78-305.367,269.391-682.058,269.391c-376.689,0-682.057-120.611-682.057-269.391
	C167.336,694.002,472.704,573.392,849.394,573.392L849.394,573.392z"/>
<path style="fill-rule:evenodd;clip-rule:evenodd;fill:#F2F2F5;" d="M849.394,574.925c374.548,0,678.179,119.924,678.179,267.858
	s-303.631,267.858-678.179,267.858c-374.547,0-678.177-119.924-678.177-267.858S474.847,574.925,849.394,574.925L849.394,574.925z"
	/>
<path style="fill-rule:evenodd;clip-rule:evenodd;fill:#F2F5F5;" d="M849.394,576.457c372.405,0,674.298,119.238,674.298,266.326
	s-301.893,266.326-674.298,266.326c-372.404,0-674.297-119.238-674.297-266.326S476.99,576.457,849.394,576.457L849.394,576.457z"/>
<path style="fill-rule:evenodd;clip-rule:evenodd;fill:#F5F5F5;" d="M849.394,577.989c370.261,0,670.419,118.552,670.419,264.794
	c0,146.242-300.158,264.793-670.419,264.793S178.976,989.024,178.976,842.783C178.976,696.542,479.133,577.989,849.394,577.989
	L849.394,577.989z"/>
<path style="fill-rule:evenodd;clip-rule:evenodd;fill:#F5F5F5;" d="M849.394,579.522c368.118,0,666.538,117.866,666.538,263.261
	s-298.42,263.26-666.538,263.26s-666.537-117.865-666.537-263.26S481.275,579.522,849.394,579.522L849.394,579.522z"/>
<path style="fill-rule:evenodd;clip-rule:evenodd;fill:#F5F5F5;" d="M849.394,581.054c365.976,0,662.657,117.18,662.657,261.729
	s-296.682,261.728-662.657,261.728c-365.975,0-662.658-117.18-662.658-261.728S483.418,581.054,849.394,581.054L849.394,581.054z"/>
<path style="fill-rule:evenodd;clip-rule:evenodd;fill:#F5F5F5;" d="M849.394,582.587c363.833,0,658.778,116.494,658.778,260.196
	c0,143.703-294.945,260.196-658.778,260.196c-363.833,0-658.777-116.493-658.777-260.196
	C190.616,699.081,485.561,582.587,849.394,582.587L849.394,582.587z"/>
<path style="fill-rule:evenodd;clip-rule:evenodd;fill:#F5F5F7;" d="M849.394,584.12c361.69,0,654.897,115.807,654.897,258.663
	s-293.207,258.663-654.897,258.663c-361.689,0-654.897-115.808-654.897-258.663S487.704,584.12,849.394,584.12L849.394,584.12z"/>
<path style="fill-rule:evenodd;clip-rule:evenodd;fill:#F7F7F7;" d="M849.394,585.652c359.548,0,651.019,115.122,651.019,257.131
	s-291.471,257.131-651.019,257.131c-359.547,0-651.018-115.122-651.018-257.131S489.847,585.652,849.394,585.652L849.394,585.652z"
	/>
<path style="fill-rule:evenodd;clip-rule:evenodd;fill:#F7F7F7;" d="M849.394,587.185c357.405,0,647.138,114.435,647.138,255.598
	c0,141.164-289.732,255.598-647.138,255.598c-357.404,0-647.138-114.435-647.138-255.598
	C202.256,701.62,491.99,587.185,849.394,587.185L849.394,587.185z"/>
<path style="fill-rule:evenodd;clip-rule:evenodd;fill:#F7F7F7;" d="M849.394,588.717c355.263,0,643.259,113.749,643.259,254.066
	s-287.996,254.066-643.259,254.066c-355.261,0-643.257-113.749-643.257-254.066S494.132,588.717,849.394,588.717L849.394,588.717z"
	/>
<path style="fill-rule:evenodd;clip-rule:evenodd;fill:#F7FAFA;" d="M849.394,590.25c353.118,0,639.378,113.063,639.378,252.533
	s-286.26,252.534-639.378,252.534S210.016,982.253,210.016,842.783S496.275,590.25,849.394,590.25L849.394,590.25z"/>
<path style="fill-rule:evenodd;clip-rule:evenodd;fill:#FAFAFA;" d="M849.394,591.782c350.976,0,635.499,112.377,635.499,251.001
	c0,138.623-284.523,251-635.499,251s-635.498-112.377-635.498-251C213.896,704.159,498.418,591.782,849.394,591.782L849.394,591.782
	z"/>
<path style="fill-rule:evenodd;clip-rule:evenodd;fill:#FAFAFA;" d="M849.394,593.314c348.833,0,631.618,111.69,631.618,249.468
	s-282.785,249.468-631.618,249.468c-348.833,0-631.618-111.69-631.618-249.468S500.561,593.314,849.394,593.314L849.394,593.314z"/>
<path style="fill-rule:evenodd;clip-rule:evenodd;fill:#FAFAFA;" d="M849.394,594.847c346.69,0,627.737,111.005,627.737,247.936
	s-281.047,247.936-627.737,247.936c-346.69,0-627.737-111.005-627.737-247.936S502.704,594.847,849.394,594.847L849.394,594.847z"/>
<path style="fill-rule:evenodd;clip-rule:evenodd;fill:#FAFAFA;" d="M849.394,596.379c344.548,0,623.858,110.319,623.858,246.404
	c0,136.085-279.311,246.404-623.858,246.404c-344.547,0-623.858-110.318-623.858-246.404
	C225.536,706.698,504.847,596.379,849.394,596.379L849.394,596.379z"/>
<path style="fill-rule:evenodd;clip-rule:evenodd;fill:#FAFAFA;" d="M849.394,597.912c342.405,0,619.978,109.632,619.978,244.871
	s-277.572,244.871-619.978,244.871c-342.404,0-619.978-109.632-619.978-244.871S506.99,597.912,849.394,597.912L849.394,597.912z"/>
<path style="fill-rule:evenodd;clip-rule:evenodd;fill:#FCFCFC;" d="M849.394,599.444c340.261,0,616.099,108.946,616.099,243.338
	c0,134.392-275.838,243.338-616.099,243.338c-340.261,0-616.098-108.946-616.098-243.338
	C233.296,708.39,509.132,599.444,849.394,599.444L849.394,599.444z"/>
<path style="fill-rule:evenodd;clip-rule:evenodd;fill:#FCFCFC;" d="M849.394,600.977c338.118,0,612.218,108.26,612.218,241.806
	c0,133.546-274.1,241.806-612.218,241.806s-612.218-108.26-612.218-241.806C237.176,709.237,511.275,600.977,849.394,600.977
	L849.394,600.977z"/>
<path style="fill-rule:evenodd;clip-rule:evenodd;fill:#FCFCFC;" d="M849.394,602.509c335.976,0,608.339,107.574,608.339,240.274
	s-272.363,240.274-608.339,240.274c-335.975,0-608.338-107.574-608.338-240.274S513.418,602.509,849.394,602.509L849.394,602.509z"
	/>
<path style="fill-rule:evenodd;clip-rule:evenodd;fill:#FCFCFC;" d="M849.394,604.042c333.833,0,604.458,106.888,604.458,238.741
	s-270.625,238.742-604.458,238.742c-333.833,0-604.458-106.889-604.458-238.742S515.561,604.042,849.394,604.042L849.394,604.042z"
	/>
<path style="fill-rule:evenodd;clip-rule:evenodd;fill:#FFFFFF;" d="M849.394,605.574c331.69,0,600.579,106.202,600.579,237.208
	c0,131.007-268.889,237.208-600.579,237.208c-331.69,0-600.578-106.201-600.578-237.208
	C248.816,711.776,517.704,605.574,849.394,605.574L849.394,605.574z"/>
<path style="fill-rule:evenodd;clip-rule:evenodd;fill:#FFFFFF;" d="M849.394,607.106c329.548,0,596.698,105.516,596.698,235.676
	s-267.15,235.676-596.698,235.676c-329.547,0-596.698-105.516-596.698-235.676S519.847,607.106,849.394,607.106L849.394,607.106z"/>
<path style="fill-rule:evenodd;clip-rule:evenodd;fill:#FFFFFF;" d="M849.394,608.639c327.405,0,592.819,104.83,592.819,234.144
	c0,129.313-265.414,234.144-592.819,234.144c-327.404,0-592.818-104.83-592.818-234.144
	C256.576,713.469,521.99,608.639,849.394,608.639L849.394,608.639z"/>
<path style="fill-rule:evenodd;clip-rule:evenodd;fill:#DEDEE0;" d="M1358.324,1228.946L1358.324,1228.946
	c0,98.627-227.855,178.58-508.931,178.58c-281.075,0-508.931-79.953-508.931-178.58l0,0H1358.324L1358.324,1228.946z"/>
<path style="fill-rule:evenodd;clip-rule:evenodd;fill:#DBDEDE;" d="M1352.252,1228.946c0,97.45-225.137,176.449-502.858,176.449
	c-277.721,0-502.858-78.999-502.858-176.449H1352.252L1352.252,1228.946z"/>
<path style="fill-rule:evenodd;clip-rule:evenodd;fill:#DBDBDE;" d="M1346.18,1228.946c0,96.274-222.418,174.318-496.786,174.318
	c-274.367,0-496.786-78.045-496.786-174.318H1346.18L1346.18,1228.946z"/>
<path style="fill-rule:evenodd;clip-rule:evenodd;fill:#D9DBDE;" d="M1340.107,1228.946c0,95.097-219.699,172.188-490.714,172.188
	c-271.014,0-490.714-77.091-490.714-172.188H1340.107L1340.107,1228.946z"/>
<path style="fill-rule:evenodd;clip-rule:evenodd;fill:#D9D9DB;" d="M1334.035,1228.946c0,93.92-216.98,170.057-484.642,170.057
	c-267.66,0-484.642-76.137-484.642-170.057H1334.035L1334.035,1228.946z"/>
<path style="fill-rule:evenodd;clip-rule:evenodd;fill:#D6D9D9;" d="M1327.963,1228.946c0,92.743-214.262,167.926-478.569,167.926
	c-264.306,0-478.569-75.182-478.569-167.926H1327.963L1327.963,1228.946z"/>
<path style="fill-rule:evenodd;clip-rule:evenodd;fill:#D6D6D9;" d="M1321.891,1228.946c0,91.567-211.543,165.796-472.497,165.796
	c-260.953,0-472.497-74.229-472.497-165.796H1321.891L1321.891,1228.946z"/>
<path style="fill-rule:evenodd;clip-rule:evenodd;fill:#D6D6D9;" d="M1315.818,1228.946c0,90.39-208.826,163.665-466.425,163.665
	c-257.6,0-466.425-73.275-466.425-163.665H1315.818L1315.818,1228.946z"/>
<path style="fill-rule:evenodd;clip-rule:evenodd;fill:#D4D6D6;" d="M1309.746,1228.946c0,89.213-206.105,161.534-460.353,161.534
	c-254.246,0-460.353-72.321-460.353-161.534H1309.746L1309.746,1228.946z"/>
<path style="fill-rule:evenodd;clip-rule:evenodd;fill:#D4D4D6;" d="M1303.674,1228.946c0,88.036-203.389,159.403-454.28,159.403
	c-250.892,0-454.28-71.367-454.28-159.403H1303.674L1303.674,1228.946z"/>
<path style="fill-rule:evenodd;clip-rule:evenodd;fill:#D1D4D4;" d="M1297.602,1228.946c0,86.859-200.67,157.273-448.208,157.273
	c-247.539,0-448.208-70.413-448.208-157.273H1297.602L1297.602,1228.946z"/>
<path style="fill-rule:evenodd;clip-rule:evenodd;fill:#D1D1D4;" d="M1291.529,1228.946c0,85.683-197.951,155.142-442.136,155.142
	c-244.185,0-442.136-69.459-442.136-155.142H1291.529L1291.529,1228.946z"/>
<path style="fill-rule:evenodd;clip-rule:evenodd;fill:#D1D1D1;" d="M1285.457,1228.946c0,84.506-195.232,153.011-436.063,153.011
	c-240.832,0-436.064-68.505-436.064-153.011H1285.457L1285.457,1228.946z"/>
<path style="fill-rule:evenodd;clip-rule:evenodd;fill:#CFCFD1;" d="M1279.385,1228.946c0,83.329-192.514,150.88-429.991,150.88
	s-429.992-67.551-429.992-150.88H1279.385L1279.385,1228.946z"/>
<path style="fill-rule:evenodd;clip-rule:evenodd;fill:#CCCFD1;" d="M1273.313,1228.946c0,82.152-189.795,148.75-423.919,148.75
	s-423.919-66.598-423.919-148.75H1273.313L1273.313,1228.946z"/>
<path style="fill-rule:evenodd;clip-rule:evenodd;fill:#CCCCCF;" d="M1267.24,1228.946c0,80.976-187.076,146.619-417.847,146.619
	c-230.77,0-417.847-65.644-417.847-146.619H1267.24L1267.24,1228.946z"/>
<path style="fill-rule:evenodd;clip-rule:evenodd;fill:#CCCCCC;" d="M1261.168,1228.946c0,79.799-184.357,144.488-411.774,144.488
	s-411.775-64.689-411.775-144.488H1261.168L1261.168,1228.946z"/>
<path style="fill-rule:evenodd;clip-rule:evenodd;fill:#C9CCCC;" d="M1255.096,1228.946c0,78.622-181.639,142.358-405.702,142.358
	s-405.703-63.735-405.703-142.358H1255.096L1255.096,1228.946z"/>
<path style="fill-rule:evenodd;clip-rule:evenodd;fill:#C9C9CC;" d="M1249.025,1228.946c0,77.445-178.922,140.227-399.632,140.227
	c-220.709,0-399.63-62.781-399.63-140.227H1249.025L1249.025,1228.946z"/>
<path style="fill-rule:evenodd;clip-rule:evenodd;fill:#C7C9C9;" d="M1242.951,1228.946c0,76.269-176.201,138.096-393.558,138.096
	c-217.356,0-393.558-61.827-393.558-138.096H1242.951L1242.951,1228.946z"/>
<path style="fill-rule:evenodd;clip-rule:evenodd;fill:#C7C7C9;" d="M1236.881,1228.946c0,75.092-173.484,135.966-387.487,135.966
	c-214.002,0-387.486-60.874-387.486-135.966H1236.881L1236.881,1228.946z"/>
<path style="fill-rule:evenodd;clip-rule:evenodd;fill:#C7C7C7;" d="M1230.809,1228.946c0,73.915-170.766,133.835-381.415,133.835
	c-210.649,0-381.414-59.92-381.414-133.835H1230.809L1230.809,1228.946z"/>
<path style="fill-rule:evenodd;clip-rule:evenodd;fill:#C4C4C7;" d="M1224.734,1228.946c0,72.738-168.045,131.704-375.341,131.704
	c-207.295,0-375.341-58.966-375.341-131.704H1224.734L1224.734,1228.946z"/>
<path style="fill-rule:evenodd;clip-rule:evenodd;fill:#C2C4C4;" d="M1218.662,1228.946c0,71.562-165.326,129.573-369.269,129.573
	c-203.941,0-369.269-58.012-369.269-129.573H1218.662L1218.662,1228.946z"/>
<path style="fill-rule:evenodd;clip-rule:evenodd;fill:#C2C2C4;" d="M1212.59,1228.946c0,70.385-162.607,127.442-363.196,127.442
	c-200.588,0-363.197-57.057-363.197-127.442H1212.59L1212.59,1228.946z"/>
<path style="fill-rule:evenodd;clip-rule:evenodd;fill:#C2C2C2;" d="M1206.52,1228.946c0,69.208-159.891,125.313-357.126,125.313
	c-197.234,0-357.125-56.104-357.125-125.313H1206.52L1206.52,1228.946z"/>
<path style="fill-rule:evenodd;clip-rule:evenodd;fill:#BFC2C2;" d="M1200.445,1228.946c0,68.031-157.17,123.182-351.052,123.182
	c-193.881,0-351.052-55.15-351.052-123.182H1200.445L1200.445,1228.946z"/>
<path style="fill-rule:evenodd;clip-rule:evenodd;fill:#BFBFC2;" d="M1194.375,1228.946c0,66.854-154.453,121.051-344.981,121.051
	c-190.527,0-344.98-54.196-344.98-121.051H1194.375L1194.375,1228.946z"/>
<path style="fill-rule:evenodd;clip-rule:evenodd;fill:#BFBFBF;" d="M1188.301,1228.946c0,65.678-151.732,118.92-338.907,118.92
	c-187.173,0-338.908-53.242-338.908-118.92H1188.301L1188.301,1228.946z"/>
<path style="fill-rule:evenodd;clip-rule:evenodd;fill:#BDBDBF;" d="M1182.23,1228.946c0,64.501-149.018,116.789-332.837,116.789
	c-183.82,0-332.835-52.288-332.835-116.789H1182.23L1182.23,1228.946z"/>
<path style="fill-rule:evenodd;clip-rule:evenodd;fill:#BDBDBD;" d="M1176.158,1228.946c0,63.324-146.299,114.658-326.765,114.658
	c-180.466,0-326.763-51.334-326.763-114.658H1176.158L1176.158,1228.946z"/>
<path style="fill-rule:evenodd;clip-rule:evenodd;fill:#BABABD;" d="M1170.086,1228.946c0,62.148-143.58,112.528-320.692,112.528
	c-177.113,0-320.691-50.381-320.691-112.528H1170.086L1170.086,1228.946z"/>
<path style="fill-rule:evenodd;clip-rule:evenodd;fill:#BABABA;" d="M1164.014,1228.946c0,60.971-140.861,110.398-314.62,110.398
	c-173.759,0-314.619-49.427-314.619-110.398H1164.014L1164.014,1228.946z"/>
<path style="fill-rule:evenodd;clip-rule:evenodd;fill:#B8BABA;" d="M1157.941,1228.946c0,59.794-138.143,108.267-308.548,108.267
	c-170.406,0-308.547-48.473-308.547-108.267H1157.941L1157.941,1228.946z"/>
<path style="fill-rule:evenodd;clip-rule:evenodd;fill:#B8B8B8;" d="M1151.869,1228.946c0,58.617-135.424,106.136-302.476,106.136
	c-167.052,0-302.474-47.519-302.474-106.136H1151.869L1151.869,1228.946z"/>
<path style="fill-rule:evenodd;clip-rule:evenodd;fill:#B5B5B8;" d="M1145.797,1228.946c0,57.441-132.705,104.005-296.403,104.005
	s-296.402-46.564-296.402-104.005H1145.797L1145.797,1228.946z"/>
<path style="fill-rule:evenodd;clip-rule:evenodd;fill:#B5B5B5;" d="M1139.725,1228.946c0,56.264-129.986,101.874-290.331,101.874
	s-290.33-45.61-290.33-101.874H1139.725L1139.725,1228.946z"/>
<path style="fill-rule:evenodd;clip-rule:evenodd;fill:#B5B5B5;" d="M1133.652,1228.946c0,55.087-127.268,99.743-284.259,99.743
	s-284.258-44.656-284.258-99.743H1133.652L1133.652,1228.946z"/>
<path style="fill-rule:evenodd;clip-rule:evenodd;fill:#B3B3B5;" d="M1127.58,1228.946c0,53.91-124.549,97.612-278.187,97.612
	s-278.186-43.702-278.186-97.612H1127.58L1127.58,1228.946z"/>
<path style="fill-rule:evenodd;clip-rule:evenodd;fill:#B3B3B3;" d="M1121.508,1228.946c0,52.733-121.83,95.483-272.114,95.483
	c-150.284,0-272.113-42.749-272.113-95.483H1121.508L1121.508,1228.946z"/>
<path style="fill-rule:evenodd;clip-rule:evenodd;fill:#B0B0B0;" d="M1115.436,1228.946c0,51.557-119.111,93.352-266.042,93.352
	c-146.93,0-266.041-41.795-266.041-93.352H1115.436L1115.436,1228.946z"/>
<path style="fill-rule:evenodd;clip-rule:evenodd;fill:#B0B0B0;" d="M1109.363,1228.946c0,50.38-116.393,91.221-259.97,91.221
	c-143.577,0-259.969-40.841-259.969-91.221H1109.363L1109.363,1228.946z"/>
<path style="fill-rule:evenodd;clip-rule:evenodd;fill:#ADADB0;" d="M1103.291,1228.946c0,49.203-113.674,89.09-253.897,89.09
	c-140.223,0-253.896-39.887-253.896-89.09H1103.291L1103.291,1228.946z"/>
<path style="fill-rule:evenodd;clip-rule:evenodd;fill:#ADADAD;" d="M1097.219,1228.946c0,48.026-110.955,86.959-247.825,86.959
	c-136.87,0-247.824-38.932-247.824-86.959H1097.219L1097.219,1228.946z"/>
<path style="fill-rule:evenodd;clip-rule:evenodd;fill:#ABABAD;" d="M1091.146,1228.946c0,46.85-108.236,84.829-241.753,84.829
	c-133.516,0-241.752-37.979-241.752-84.829H1091.146L1091.146,1228.946z"/>
<path style="fill-rule:evenodd;clip-rule:evenodd;fill:#ABABAB;" d="M1085.074,1228.946c0,45.673-105.518,82.698-235.681,82.698
	c-130.162,0-235.68-37.025-235.68-82.698H1085.074L1085.074,1228.946z"/>
<path style="fill-rule:evenodd;clip-rule:evenodd;fill:#ABABAB;" d="M1079.002,1228.946c0,44.496-102.799,80.567-229.608,80.567
	c-126.809,0-229.607-36.071-229.607-80.567H1079.002L1079.002,1228.946z"/>
<path style="fill-rule:evenodd;clip-rule:evenodd;fill:#A8A8A8;" d="M1072.93,1228.946c0,43.319-100.08,78.437-223.536,78.437
	c-123.455,0-223.535-35.117-223.535-78.437H1072.93L1072.93,1228.946z"/>
<path style="fill-rule:evenodd;clip-rule:evenodd;fill:#A6A8A8;" d="M1066.857,1228.946c0,42.143-97.361,76.306-217.464,76.306
	c-120.102,0-217.463-34.163-217.463-76.306H1066.857L1066.857,1228.946z"/>
<path style="fill-rule:evenodd;clip-rule:evenodd;fill:#A6A6A6;" d="M1060.785,1228.946c0,40.966-94.645,74.175-211.392,74.175
	c-116.748,0-211.391-33.209-211.391-74.175H1060.785L1060.785,1228.946z"/>
<path style="fill-rule:evenodd;clip-rule:evenodd;fill:#A6A6A6;" d="M1054.713,1228.946c0,39.789-91.926,72.045-205.319,72.045
	c-113.394,0-205.318-32.256-205.318-72.045H1054.713L1054.713,1228.946z"/>
<path style="fill-rule:evenodd;clip-rule:evenodd;fill:#A3A3A6;" d="M1048.641,1228.946c0,38.612-89.207,69.914-199.247,69.914
	c-110.041,0-199.246-31.302-199.246-69.914H1048.641L1048.641,1228.946z"/>
<path style="fill-rule:evenodd;clip-rule:evenodd;fill:#A3A3A3;" d="M1042.568,1228.946c0,37.436-86.488,67.783-193.175,67.783
	c-106.687,0-193.174-30.348-193.174-67.783H1042.568L1042.568,1228.946z"/>
<path style="fill-rule:evenodd;clip-rule:evenodd;fill:#A3A3A3;" d="M1036.496,1228.946c0,36.259-83.77,65.652-187.103,65.652
	c-103.333,0-187.102-29.394-187.102-65.652H1036.496L1036.496,1228.946z"/>
<path style="fill-rule:evenodd;clip-rule:evenodd;fill:#A1A1A1;" d="M1030.424,1228.946c0,35.082-81.051,63.521-181.03,63.521
	c-99.98,0-181.03-28.439-181.03-63.521H1030.424L1030.424,1228.946z"/>
<path style="fill-rule:evenodd;clip-rule:evenodd;fill:#A1A1A1;" d="M1024.352,1228.946c0,33.905-78.332,61.391-174.958,61.391
	c-96.626,0-174.958-27.485-174.958-61.391H1024.352L1024.352,1228.946z"/>
<path style="fill-rule:evenodd;clip-rule:evenodd;fill:#9E9E9E;" d="M1018.279,1228.946c0,32.729-75.613,59.261-168.886,59.261
	s-168.885-26.532-168.885-59.261H1018.279L1018.279,1228.946z"/>
<path style="fill-rule:evenodd;clip-rule:evenodd;fill:#9E9E9E;" d="M1012.207,1228.946c0,31.552-72.894,57.13-162.813,57.13
	s-162.813-25.578-162.813-57.13H1012.207L1012.207,1228.946z"/>
<path style="fill-rule:evenodd;clip-rule:evenodd;fill:#9C9C9C;" d="M1006.135,1228.946c0,30.375-70.176,54.999-156.741,54.999
	s-156.741-24.624-156.741-54.999H1006.135L1006.135,1228.946z"/>
<path style="fill-rule:evenodd;clip-rule:evenodd;fill:#9C9C9C;" d="M1000.063,1228.946c0,29.198-67.457,52.868-150.669,52.868
	s-150.668-23.67-150.668-52.868H1000.063L1000.063,1228.946z"/>
<path style="fill-rule:evenodd;clip-rule:evenodd;fill:#999999;" d="M993.99,1228.946c0,28.021-64.738,50.737-144.597,50.737
	s-144.596-22.716-144.596-50.737H993.99L993.99,1228.946z"/>
<path style="fill-rule:evenodd;clip-rule:evenodd;fill:#999999;" d="M987.918,1228.946L987.918,1228.946
	c0,26.845-62.02,48.607-138.524,48.607c-76.504,0-138.524-21.762-138.524-48.607l0,0H987.918L987.918,1228.946z"/>
<polygon style="fill-rule:evenodd;clip-rule:evenodd;fill:#E6E6E6;" points="340.463,1169.955 1358.324,1169.955 1358.324,1289.047 
	340.463,1289.047 340.463,1169.955 "/>
<polygon style="fill-rule:evenodd;clip-rule:evenodd;fill:#E6E6E6;" points="340.463,1169.955 1358.324,1169.955 1103.859,1038.324 
	594.928,1038.324 340.463,1169.955 "/>
<path style="fill-rule:evenodd;clip-rule:evenodd;fill:#DEDEE0;" d="M1358.324,456.065L1358.324,456.065
	c0-98.627-227.855-178.58-508.931-178.58c-281.075,0-508.931,79.953-508.931,178.58l0,0H1358.324L1358.324,456.065z"/>
<path style="fill-rule:evenodd;clip-rule:evenodd;fill:#DBDEDE;" d="M1352.252,456.065c0-97.45-225.137-176.449-502.858-176.449
	c-277.721,0-502.858,78.999-502.858,176.449H1352.252L1352.252,456.065z"/>
<path style="fill-rule:evenodd;clip-rule:evenodd;fill:#DBDBDE;" d="M1346.18,456.065c0-96.273-222.418-174.318-496.786-174.318
	c-274.367,0-496.786,78.045-496.786,174.318H1346.18L1346.18,456.065z"/>
<path style="fill-rule:evenodd;clip-rule:evenodd;fill:#D9DBDE;" d="M1340.107,456.065c0-95.097-219.699-172.188-490.714-172.188
	c-271.014,0-490.714,77.091-490.714,172.188H1340.107L1340.107,456.065z"/>
<path style="fill-rule:evenodd;clip-rule:evenodd;fill:#D9D9DB;" d="M1334.035,456.065c0-93.92-216.98-170.057-484.642-170.057
	c-267.66,0-484.642,76.137-484.642,170.057H1334.035L1334.035,456.065z"/>
<path style="fill-rule:evenodd;clip-rule:evenodd;fill:#D6D9D9;" d="M1327.963,456.065c0-92.743-214.262-167.926-478.569-167.926
	c-264.306,0-478.569,75.183-478.569,167.926H1327.963L1327.963,456.065z"/>
<path style="fill-rule:evenodd;clip-rule:evenodd;fill:#D6D6D9;" d="M1321.891,456.065c0-91.566-211.543-165.796-472.497-165.796
	c-260.953,0-472.497,74.229-472.497,165.796H1321.891L1321.891,456.065z"/>
<path style="fill-rule:evenodd;clip-rule:evenodd;fill:#D6D6D9;" d="M1315.818,456.065c0-90.39-208.826-163.665-466.425-163.665
	c-257.6,0-466.425,73.275-466.425,163.665H1315.818L1315.818,456.065z"/>
<path style="fill-rule:evenodd;clip-rule:evenodd;fill:#D4D6D6;" d="M1309.746,456.065c0-89.213-206.105-161.534-460.353-161.534
	c-254.246,0-460.353,72.321-460.353,161.534H1309.746L1309.746,456.065z"/>
<path style="fill-rule:evenodd;clip-rule:evenodd;fill:#D4D4D6;" d="M1303.674,456.065c0-88.036-203.389-159.403-454.28-159.403
	c-250.892,0-454.28,71.367-454.28,159.403H1303.674L1303.674,456.065z"/>
<path style="fill-rule:evenodd;clip-rule:evenodd;fill:#D1D4D4;" d="M1297.602,456.065c0-86.859-200.67-157.272-448.208-157.272
	c-247.539,0-448.208,70.413-448.208,157.272H1297.602L1297.602,456.065z"/>
<path style="fill-rule:evenodd;clip-rule:evenodd;fill:#D1D1D4;" d="M1291.529,456.065c0-85.683-197.951-155.142-442.136-155.142
	c-244.185,0-442.136,69.46-442.136,155.142H1291.529L1291.529,456.065z"/>
<path style="fill-rule:evenodd;clip-rule:evenodd;fill:#D1D1D1;" d="M1285.457,456.065c0-84.506-195.232-153.011-436.063-153.011
	c-240.832,0-436.064,68.505-436.064,153.011H1285.457L1285.457,456.065z"/>
<path style="fill-rule:evenodd;clip-rule:evenodd;fill:#CFCFD1;" d="M1279.385,456.065c0-83.329-192.514-150.881-429.991-150.881
	s-429.992,67.552-429.992,150.881H1279.385L1279.385,456.065z"/>
<path style="fill-rule:evenodd;clip-rule:evenodd;fill:#CCCFD1;" d="M1273.313,456.065c0-82.152-189.795-148.75-423.919-148.75
	s-423.919,66.598-423.919,148.75H1273.313L1273.313,456.065z"/>
<path style="fill-rule:evenodd;clip-rule:evenodd;fill:#CCCCCF;" d="M1267.24,456.065c0-80.976-187.076-146.619-417.847-146.619
	c-230.77,0-417.847,65.644-417.847,146.619H1267.24L1267.24,456.065z"/>
<path style="fill-rule:evenodd;clip-rule:evenodd;fill:#CCCCCC;" d="M1261.168,456.065c0-79.799-184.357-144.489-411.774-144.489
	s-411.775,64.69-411.775,144.489H1261.168L1261.168,456.065z"/>
<path style="fill-rule:evenodd;clip-rule:evenodd;fill:#C9CCCC;" d="M1255.096,456.065c0-78.622-181.639-142.358-405.702-142.358
	s-405.703,63.736-405.703,142.358H1255.096L1255.096,456.065z"/>
<path style="fill-rule:evenodd;clip-rule:evenodd;fill:#C9C9CC;" d="M1249.025,456.065c0-77.445-178.922-140.227-399.632-140.227
	c-220.709,0-399.63,62.782-399.63,140.227H1249.025L1249.025,456.065z"/>
<path style="fill-rule:evenodd;clip-rule:evenodd;fill:#C7C9C9;" d="M1242.951,456.065c0-76.269-176.201-138.096-393.558-138.096
	c-217.356,0-393.558,61.828-393.558,138.096H1242.951L1242.951,456.065z"/>
<path style="fill-rule:evenodd;clip-rule:evenodd;fill:#C7C7C9;" d="M1236.881,456.065c0-75.092-173.484-135.966-387.487-135.966
	c-214.002,0-387.486,60.874-387.486,135.966H1236.881L1236.881,456.065z"/>
<path style="fill-rule:evenodd;clip-rule:evenodd;fill:#C7C7C7;" d="M1230.809,456.065c0-73.915-170.766-133.835-381.415-133.835
	c-210.649,0-381.414,59.92-381.414,133.835H1230.809L1230.809,456.065z"/>
<path style="fill-rule:evenodd;clip-rule:evenodd;fill:#C4C4C7;" d="M1224.734,456.065c0-72.738-168.045-131.704-375.341-131.704
	c-207.295,0-375.341,58.966-375.341,131.704H1224.734L1224.734,456.065z"/>
<path style="fill-rule:evenodd;clip-rule:evenodd;fill:#C2C4C4;" d="M1218.662,456.065c0-71.561-165.326-129.574-369.269-129.574
	c-203.941,0-369.269,58.012-369.269,129.574H1218.662L1218.662,456.065z"/>
<path style="fill-rule:evenodd;clip-rule:evenodd;fill:#C2C2C4;" d="M1212.59,456.065c0-70.385-162.607-127.443-363.196-127.443
	c-200.588,0-363.197,57.058-363.197,127.443H1212.59L1212.59,456.065z"/>
<path style="fill-rule:evenodd;clip-rule:evenodd;fill:#C2C2C2;" d="M1206.52,456.065c0-69.208-159.891-125.313-357.126-125.313
	c-197.234,0-357.125,56.104-357.125,125.313H1206.52L1206.52,456.065z"/>
<path style="fill-rule:evenodd;clip-rule:evenodd;fill:#BFC2C2;" d="M1200.445,456.065c0-68.031-157.17-123.182-351.052-123.182
	c-193.881,0-351.052,55.15-351.052,123.182H1200.445L1200.445,456.065z"/>
<path style="fill-rule:evenodd;clip-rule:evenodd;fill:#BFBFC2;" d="M1194.375,456.065c0-66.854-154.453-121.051-344.981-121.051
	c-190.527,0-344.98,54.196-344.98,121.051H1194.375L1194.375,456.065z"/>
<path style="fill-rule:evenodd;clip-rule:evenodd;fill:#BFBFBF;" d="M1188.301,456.065c0-65.678-151.732-118.92-338.907-118.92
	c-187.173,0-338.908,53.242-338.908,118.92H1188.301L1188.301,456.065z"/>
<path style="fill-rule:evenodd;clip-rule:evenodd;fill:#BDBDBF;" d="M1182.23,456.065c0-64.501-149.018-116.789-332.837-116.789
	c-183.82,0-332.835,52.288-332.835,116.789H1182.23L1182.23,456.065z"/>
<path style="fill-rule:evenodd;clip-rule:evenodd;fill:#BDBDBD;" d="M1176.158,456.065c0-63.324-146.299-114.658-326.765-114.658
	c-180.466,0-326.763,51.334-326.763,114.658H1176.158L1176.158,456.065z"/>
<path style="fill-rule:evenodd;clip-rule:evenodd;fill:#BABABD;" d="M1170.086,456.065c0-62.147-143.58-112.528-320.692-112.528
	c-177.113,0-320.691,50.38-320.691,112.528H1170.086L1170.086,456.065z"/>
<path style="fill-rule:evenodd;clip-rule:evenodd;fill:#BABABA;" d="M1164.014,456.065c0-60.971-140.861-110.397-314.62-110.397
	c-173.759,0-314.619,49.427-314.619,110.397H1164.014L1164.014,456.065z"/>
<path style="fill-rule:evenodd;clip-rule:evenodd;fill:#B8BABA;" d="M1157.941,456.065c0-59.794-138.143-108.267-308.548-108.267
	c-170.406,0-308.547,48.473-308.547,108.267H1157.941L1157.941,456.065z"/>
<path style="fill-rule:evenodd;clip-rule:evenodd;fill:#B8B8B8;" d="M1151.869,456.065c0-58.617-135.424-106.136-302.476-106.136
	c-167.052,0-302.474,47.519-302.474,106.136H1151.869L1151.869,456.065z"/>
<path style="fill-rule:evenodd;clip-rule:evenodd;fill:#B5B5B8;" d="M1145.797,456.065c0-57.44-132.705-104.005-296.403-104.005
	s-296.402,46.565-296.402,104.005H1145.797L1145.797,456.065z"/>
<path style="fill-rule:evenodd;clip-rule:evenodd;fill:#B5B5B5;" d="M1139.725,456.065c0-56.264-129.986-101.875-290.331-101.875
	s-290.33,45.611-290.33,101.875H1139.725L1139.725,456.065z"/>
<path style="fill-rule:evenodd;clip-rule:evenodd;fill:#B5B5B5;" d="M1133.652,456.065c0-55.087-127.268-99.744-284.259-99.744
	s-284.258,44.657-284.258,99.744H1133.652L1133.652,456.065z"/>
<path style="fill-rule:evenodd;clip-rule:evenodd;fill:#B3B3B5;" d="M1127.58,456.065c0-53.91-124.549-97.613-278.187-97.613
	s-278.186,43.703-278.186,97.613H1127.58L1127.58,456.065z"/>
<path style="fill-rule:evenodd;clip-rule:evenodd;fill:#B3B3B3;" d="M1121.508,456.065c0-52.733-121.83-95.482-272.114-95.482
	c-150.284,0-272.113,42.749-272.113,95.482H1121.508L1121.508,456.065z"/>
<path style="fill-rule:evenodd;clip-rule:evenodd;fill:#B0B0B0;" d="M1115.436,456.065c0-51.557-119.111-93.352-266.042-93.352
	c-146.93,0-266.041,41.795-266.041,93.352H1115.436L1115.436,456.065z"/>
<path style="fill-rule:evenodd;clip-rule:evenodd;fill:#B0B0B0;" d="M1109.363,456.065c0-50.38-116.393-91.221-259.97-91.221
	c-143.577,0-259.969,40.841-259.969,91.221H1109.363L1109.363,456.065z"/>
<path style="fill-rule:evenodd;clip-rule:evenodd;fill:#ADADB0;" d="M1103.291,456.065c0-49.203-113.674-89.09-253.897-89.09
	c-140.223,0-253.896,39.887-253.896,89.09H1103.291L1103.291,456.065z"/>
<path style="fill-rule:evenodd;clip-rule:evenodd;fill:#ADADAD;" d="M1097.219,456.065c0-48.026-110.955-86.96-247.825-86.96
	c-136.87,0-247.824,38.933-247.824,86.96H1097.219L1097.219,456.065z"/>
<path style="fill-rule:evenodd;clip-rule:evenodd;fill:#ABABAD;" d="M1091.146,456.065c0-46.85-108.236-84.829-241.753-84.829
	c-133.516,0-241.752,37.979-241.752,84.829H1091.146L1091.146,456.065z"/>
<path style="fill-rule:evenodd;clip-rule:evenodd;fill:#ABABAB;" d="M1085.074,456.065c0-45.673-105.518-82.698-235.681-82.698
	c-130.162,0-235.68,37.025-235.68,82.698H1085.074L1085.074,456.065z"/>
<path style="fill-rule:evenodd;clip-rule:evenodd;fill:#ABABAB;" d="M1079.002,456.065c0-44.496-102.799-80.567-229.608-80.567
	c-126.809,0-229.607,36.071-229.607,80.567H1079.002L1079.002,456.065z"/>
<path style="fill-rule:evenodd;clip-rule:evenodd;fill:#A8A8A8;" d="M1072.93,456.065c0-43.319-100.08-78.436-223.536-78.436
	c-123.455,0-223.535,35.117-223.535,78.436H1072.93L1072.93,456.065z"/>
<path style="fill-rule:evenodd;clip-rule:evenodd;fill:#A6A8A8;" d="M1066.857,456.065c0-42.143-97.361-76.306-217.464-76.306
	c-120.102,0-217.463,34.164-217.463,76.306H1066.857L1066.857,456.065z"/>
<path style="fill-rule:evenodd;clip-rule:evenodd;fill:#A6A6A6;" d="M1060.785,456.065c0-40.966-94.645-74.175-211.392-74.175
	c-116.748,0-211.391,33.21-211.391,74.175H1060.785L1060.785,456.065z"/>
<path style="fill-rule:evenodd;clip-rule:evenodd;fill:#A6A6A6;" d="M1054.713,456.065c0-39.789-91.926-72.045-205.319-72.045
	c-113.394,0-205.318,32.256-205.318,72.045H1054.713L1054.713,456.065z"/>
<path style="fill-rule:evenodd;clip-rule:evenodd;fill:#A3A3A6;" d="M1048.641,456.065c0-38.612-89.207-69.914-199.247-69.914
	c-110.041,0-199.246,31.302-199.246,69.914H1048.641L1048.641,456.065z"/>
<path style="fill-rule:evenodd;clip-rule:evenodd;fill:#A3A3A3;" d="M1042.568,456.065c0-37.436-86.488-67.783-193.175-67.783
	c-106.687,0-193.174,30.348-193.174,67.783H1042.568L1042.568,456.065z"/>
<path style="fill-rule:evenodd;clip-rule:evenodd;fill:#A3A3A3;" d="M1036.496,456.065c0-36.259-83.77-65.652-187.103-65.652
	c-103.333,0-187.102,29.394-187.102,65.652H1036.496L1036.496,456.065z"/>
<path style="fill-rule:evenodd;clip-rule:evenodd;fill:#A1A1A1;" d="M1030.424,456.065c0-35.082-81.051-63.521-181.03-63.521
	c-99.98,0-181.03,28.439-181.03,63.521H1030.424L1030.424,456.065z"/>
<path style="fill-rule:evenodd;clip-rule:evenodd;fill:#A1A1A1;" d="M1024.352,456.065c0-33.905-78.332-61.391-174.958-61.391
	c-96.626,0-174.958,27.486-174.958,61.391H1024.352L1024.352,456.065z"/>
<path style="fill-rule:evenodd;clip-rule:evenodd;fill:#9E9E9E;" d="M1018.279,456.065c0-32.728-75.613-59.261-168.886-59.261
	s-168.885,26.532-168.885,59.261H1018.279L1018.279,456.065z"/>
<path style="fill-rule:evenodd;clip-rule:evenodd;fill:#9E9E9E;" d="M1012.207,456.065c0-31.552-72.894-57.13-162.813-57.13
	s-162.813,25.578-162.813,57.13H1012.207L1012.207,456.065z"/>
<path style="fill-rule:evenodd;clip-rule:evenodd;fill:#9C9C9C;" d="M1006.135,456.065c0-30.375-70.176-54.999-156.741-54.999
	s-156.741,24.624-156.741,54.999H1006.135L1006.135,456.065z"/>
<path style="fill-rule:evenodd;clip-rule:evenodd;fill:#9C9C9C;" d="M1000.063,456.065c0-29.198-67.457-52.868-150.669-52.868
	s-150.668,23.67-150.668,52.868H1000.063L1000.063,456.065z"/>
<path style="fill-rule:evenodd;clip-rule:evenodd;fill:#999999;" d="M993.99,456.065c0-28.021-64.738-50.737-144.597-50.737
	s-144.596,22.716-144.596,50.737H993.99L993.99,456.065z"/>
<path style="fill-rule:evenodd;clip-rule:evenodd;fill:#999999;" d="M987.918,456.065L987.918,456.065
	c0-26.845-62.02-48.607-138.524-48.607c-76.504,0-138.524,21.763-138.524,48.607l0,0H987.918L987.918,456.065z"/>
<polygon style="fill-rule:evenodd;clip-rule:evenodd;fill:#E6E6E6;" points="340.463,396.52 1358.324,396.52 1358.324,515.611 
	340.463,515.611 340.463,396.52 "/>
<polygon style="fill-rule:evenodd;clip-rule:evenodd;fill:#E6E6E6;" points="340.463,515.611 1358.324,515.611 1103.859,647.242 
	594.928,647.242 340.463,515.611 "/>
<polygon style="fill-rule:evenodd;clip-rule:evenodd;fill:#E6E6E6;" points="1249.371,1113.595 1103.859,1038.324 594.928,1038.324 
	449.416,1113.595 1249.371,1113.595 "/>
<path style="fill-rule:evenodd;clip-rule:evenodd;fill:#E8E8E8;" d="M1244.393,1111.02c-46.846-24.232-93.689-48.464-140.533-72.695
	c-169.645,0-339.288,0-508.931,0c-46.845,24.231-93.689,48.463-140.533,72.695C717.727,1111.02,981.06,1111.02,1244.393,1111.02
	L1244.393,1111.02z"/>
<path style="fill-rule:evenodd;clip-rule:evenodd;fill:#E8E8E8;" d="M1239.414,1108.443
	c-45.186-23.373-90.371-46.746-135.555-70.119c-169.645,0-339.288,0-508.931,0c-45.185,23.373-90.37,46.746-135.555,70.119
	C719.387,1108.443,979.4,1108.443,1239.414,1108.443L1239.414,1108.443z"/>
<path style="fill-rule:evenodd;clip-rule:evenodd;fill:#EBEBEB;" d="M1234.436,1105.869c-43.525-22.516-87.051-45.03-130.576-67.545
	c-169.645,0-339.288,0-508.931,0c-43.525,22.515-87.051,45.029-130.576,67.545C721.047,1105.869,977.74,1105.869,1234.436,1105.869
	L1234.436,1105.869z"/>
<path style="fill-rule:evenodd;clip-rule:evenodd;fill:#EBEBEB;" d="M1229.457,1103.293
	c-41.867-21.656-83.732-43.313-125.598-64.969c-169.645,0-339.288,0-508.931,0c-41.866,21.656-83.731,43.313-125.597,64.969
	C722.706,1103.293,976.082,1103.293,1229.457,1103.293L1229.457,1103.293z"/>
<path style="fill-rule:evenodd;clip-rule:evenodd;fill:#EDEDED;" d="M1224.479,1100.718
	c-40.207-20.798-80.414-41.596-120.619-62.394c-169.645,0-339.288,0-508.931,0c-40.206,20.798-80.413,41.596-120.619,62.394
	C724.366,1100.718,974.422,1100.718,1224.479,1100.718L1224.479,1100.718z"/>
<path style="fill-rule:evenodd;clip-rule:evenodd;fill:#EDEDED;" d="M1219.5,1098.142c-38.547-19.939-77.094-39.879-115.641-59.818
	c-169.645,0-339.288,0-508.931,0c-38.547,19.939-77.093,39.879-115.64,59.818C726.025,1098.142,972.762,1098.142,1219.5,1098.142
	L1219.5,1098.142z"/>
<path style="fill-rule:evenodd;clip-rule:evenodd;fill:#EDEDED;" d="M1214.52,1095.567c-36.887-19.081-73.773-38.162-110.66-57.243
	c-169.645,0-339.288,0-508.931,0c-36.887,19.081-73.774,38.162-110.661,57.243C727.685,1095.567,971.103,1095.567,1214.52,1095.567
	L1214.52,1095.567z"/>
<path style="fill-rule:evenodd;clip-rule:evenodd;fill:#F0F0F0;" d="M1209.541,1092.992
	c-35.227-18.223-70.455-36.445-105.682-54.668c-169.645,0-339.288,0-508.931,0c-35.227,18.223-70.455,36.445-105.683,54.668
	C729.344,1092.992,969.443,1092.992,1209.541,1092.992L1209.541,1092.992z"/>
<path style="fill-rule:evenodd;clip-rule:evenodd;fill:#F2F2F2;" d="M1204.563,1090.416
	c-33.566-17.363-67.135-34.729-100.703-52.092c-169.645,0-339.288,0-508.931,0c-33.568,17.363-67.136,34.729-100.704,52.092
	C731.004,1090.416,967.783,1090.416,1204.563,1090.416L1204.563,1090.416z"/>
<path style="fill-rule:evenodd;clip-rule:evenodd;fill:#F2F2F2;" d="M1199.584,1087.841c-31.908-16.506-63.816-33.011-95.725-49.517
	c-169.645,0-339.288,0-508.931,0c-31.909,16.506-63.817,33.011-95.726,49.517C732.664,1087.841,966.123,1087.841,1199.584,1087.841
	L1199.584,1087.841z"/>
<path style="fill-rule:evenodd;clip-rule:evenodd;fill:#F2F2F2;" d="M1194.605,1085.266c-30.248-15.647-60.498-31.295-90.746-46.941
	c-169.645,0-339.288,0-508.931,0c-30.249,15.646-60.498,31.294-90.747,46.941C734.323,1085.266,964.465,1085.266,1194.605,1085.266
	L1194.605,1085.266z"/>
<path style="fill-rule:evenodd;clip-rule:evenodd;fill:#F5F5F5;" d="M1189.627,1082.69c-28.59-14.789-57.178-29.578-85.768-44.366
	c-169.645,0-339.288,0-508.931,0c-28.589,14.788-57.179,29.577-85.768,44.366C735.982,1082.69,962.805,1082.69,1189.627,1082.69
	L1189.627,1082.69z"/>
<path style="fill-rule:evenodd;clip-rule:evenodd;fill:#F5F5F5;" d="M1184.648,1080.115c-26.93-13.931-53.859-27.861-80.789-41.791
	c-169.645,0-339.288,0-508.931,0c-26.93,13.93-53.86,27.86-80.789,41.791C737.642,1080.115,961.144,1080.115,1184.648,1080.115
	L1184.648,1080.115z"/>
<path style="fill-rule:evenodd;clip-rule:evenodd;fill:#F7F7F7;" d="M1179.67,1077.54c-25.27-13.072-50.541-26.145-75.811-39.216
	c-169.645,0-339.288,0-508.931,0c-25.27,13.071-50.54,26.144-75.811,39.216C739.301,1077.54,959.486,1077.54,1179.67,1077.54
	L1179.67,1077.54z"/>
<path style="fill-rule:evenodd;clip-rule:evenodd;fill:#F7F7F7;" d="M1174.691,1074.965c-23.611-12.214-47.223-24.428-70.832-36.641
	c-169.645,0-339.288,0-508.931,0c-23.611,12.213-47.222,24.427-70.832,36.641C740.961,1074.965,957.826,1074.965,1174.691,1074.965
	L1174.691,1074.965z"/>
<path style="fill-rule:evenodd;clip-rule:evenodd;fill:#FAFAFA;" d="M1169.713,1072.389c-21.951-11.355-43.902-22.71-65.854-34.064
	c-169.645,0-339.288,0-508.931,0c-21.951,11.354-43.902,22.71-65.853,34.064C742.621,1072.389,956.166,1072.389,1169.713,1072.389
	L1169.713,1072.389z"/>
<path style="fill-rule:evenodd;clip-rule:evenodd;fill:#FAFAFA;" d="M1164.734,1069.813c-20.291-10.497-40.584-20.993-60.875-31.489
	c-169.645,0-339.288,0-508.931,0c-20.292,10.496-40.583,20.992-60.875,31.489C744.28,1069.813,954.508,1069.813,1164.734,1069.813
	L1164.734,1069.813z"/>
<path style="fill-rule:evenodd;clip-rule:evenodd;fill:#FAFAFA;" d="M1159.756,1067.238c-18.633-9.638-37.264-19.276-55.896-28.914
	c-169.645,0-339.288,0-508.931,0c-18.632,9.638-37.264,19.276-55.896,28.914C745.939,1067.238,952.848,1067.238,1159.756,1067.238
	L1159.756,1067.238z"/>
<path style="fill-rule:evenodd;clip-rule:evenodd;fill:#FCFCFC;" d="M1154.777,1064.663c-16.973-8.78-33.945-17.559-50.918-26.339
	c-169.645,0-339.288,0-508.931,0c-16.973,8.779-33.945,17.559-50.918,26.339C747.599,1064.663,951.188,1064.663,1154.777,1064.663
	L1154.777,1064.663z"/>
<path style="fill-rule:evenodd;clip-rule:evenodd;fill:#FFFFFF;" d="M1149.799,1062.088c-15.314-7.922-30.627-15.843-45.939-23.764
	c-169.645,0-339.288,0-508.931,0c-15.313,7.921-30.626,15.842-45.939,23.764C749.259,1062.088,949.529,1062.088,1149.799,1062.088
	L1149.799,1062.088z"/>
<polygon style="fill-rule:evenodd;clip-rule:evenodd;fill:#FFFFFF;" points="1144.82,1059.513 1103.859,1038.324 594.928,1038.324 
	553.968,1059.513 1144.82,1059.513 "/>
<polygon style="fill-rule:evenodd;clip-rule:evenodd;fill:#E6E6E6;" points="1249.371,571.971 1103.859,647.242 594.928,647.242 
	449.416,571.971 1249.371,571.971 "/>
<path style="fill-rule:evenodd;clip-rule:evenodd;fill:#E8E8E8;" d="M1244.393,574.546c-46.846,24.232-93.689,48.463-140.533,72.695
	c-169.645,0-339.288,0-508.931,0c-46.845-24.232-93.689-48.463-140.533-72.695C717.727,574.546,981.06,574.546,1244.393,574.546
	L1244.393,574.546z"/>
<path style="fill-rule:evenodd;clip-rule:evenodd;fill:#E8E8E8;" d="M1239.414,577.122c-45.186,23.373-90.371,46.747-135.555,70.12
	c-169.645,0-339.288,0-508.931,0c-45.185-23.373-90.37-46.747-135.555-70.12C719.387,577.122,979.4,577.122,1239.414,577.122
	L1239.414,577.122z"/>
<path style="fill-rule:evenodd;clip-rule:evenodd;fill:#EBEBEB;" d="M1234.436,579.697c-43.525,22.515-87.051,45.03-130.576,67.544
	c-169.645,0-339.288,0-508.931,0c-43.525-22.515-87.051-45.029-130.576-67.544C721.047,579.697,977.74,579.697,1234.436,579.697
	L1234.436,579.697z"/>
<path style="fill-rule:evenodd;clip-rule:evenodd;fill:#EBEBEB;" d="M1229.457,582.272c-41.867,21.656-83.732,43.313-125.598,64.969
	c-169.645,0-339.288,0-508.931,0c-41.866-21.657-83.731-43.313-125.597-64.969C722.706,582.272,976.082,582.272,1229.457,582.272
	L1229.457,582.272z"/>
<path style="fill-rule:evenodd;clip-rule:evenodd;fill:#EDEDED;" d="M1224.479,584.848c-40.207,20.798-80.414,41.596-120.619,62.394
	c-169.645,0-339.288,0-508.931,0c-40.206-20.798-80.413-41.596-120.619-62.394C724.366,584.848,974.422,584.848,1224.479,584.848
	L1224.479,584.848z"/>
<path style="fill-rule:evenodd;clip-rule:evenodd;fill:#EDEDED;" d="M1219.5,587.423c-38.547,19.94-77.094,39.879-115.641,59.818
	c-169.645,0-339.288,0-508.931,0c-38.547-19.94-77.093-39.879-115.64-59.818C726.025,587.423,972.762,587.423,1219.5,587.423
	L1219.5,587.423z"/>
<path style="fill-rule:evenodd;clip-rule:evenodd;fill:#EDEDED;" d="M1214.52,589.998c-36.887,19.081-73.773,38.162-110.66,57.243
	c-169.645,0-339.288,0-508.931,0c-36.887-19.082-73.774-38.163-110.661-57.243C727.685,589.998,971.103,589.998,1214.52,589.998
	L1214.52,589.998z"/>
<path style="fill-rule:evenodd;clip-rule:evenodd;fill:#F0F0F0;" d="M1209.541,592.573c-35.227,18.223-70.455,36.445-105.682,54.668
	c-169.645,0-339.288,0-508.931,0c-35.227-18.223-70.455-36.445-105.683-54.668C729.344,592.573,969.443,592.573,1209.541,592.573
	L1209.541,592.573z"/>
<path style="fill-rule:evenodd;clip-rule:evenodd;fill:#F2F2F2;" d="M1204.563,595.149c-33.566,17.364-67.135,34.728-100.703,52.092
	c-169.645,0-339.288,0-508.931,0c-33.568-17.364-67.136-34.729-100.704-52.092C731.004,595.149,967.783,595.149,1204.563,595.149
	L1204.563,595.149z"/>
<path style="fill-rule:evenodd;clip-rule:evenodd;fill:#F2F2F2;" d="M1199.584,597.725c-31.908,16.505-63.816,33.011-95.725,49.517
	c-169.645,0-339.288,0-508.931,0c-31.909-16.506-63.817-33.012-95.726-49.517C732.664,597.725,966.123,597.725,1199.584,597.725
	L1199.584,597.725z"/>
<path style="fill-rule:evenodd;clip-rule:evenodd;fill:#F2F2F2;" d="M1194.605,600.299c-30.248,15.647-60.498,31.294-90.746,46.942
	c-169.645,0-339.288,0-508.931,0c-30.249-15.648-60.498-31.295-90.747-46.942C734.323,600.299,964.465,600.299,1194.605,600.299
	L1194.605,600.299z"/>
<path style="fill-rule:evenodd;clip-rule:evenodd;fill:#F5F5F5;" d="M1189.627,602.875c-28.59,14.789-57.178,29.577-85.768,44.366
	c-169.645,0-339.288,0-508.931,0c-28.589-14.789-57.179-29.578-85.768-44.366C735.982,602.875,962.805,602.875,1189.627,602.875
	L1189.627,602.875z"/>
<path style="fill-rule:evenodd;clip-rule:evenodd;fill:#F5F5F5;" d="M1184.648,605.45c-26.93,13.93-53.859,27.861-80.789,41.791
	c-169.645,0-339.288,0-508.931,0c-26.93-13.93-53.86-27.861-80.789-41.791C737.642,605.45,961.144,605.45,1184.648,605.45
	L1184.648,605.45z"/>
<path style="fill-rule:evenodd;clip-rule:evenodd;fill:#F7F7F7;" d="M1179.67,608.025c-25.27,13.072-50.541,26.143-75.811,39.216
	c-169.645,0-339.288,0-508.931,0c-25.27-13.072-50.54-26.144-75.811-39.216C739.301,608.025,959.486,608.025,1179.67,608.025
	L1179.67,608.025z"/>
<path style="fill-rule:evenodd;clip-rule:evenodd;fill:#F7F7F7;" d="M1174.691,610.601c-23.611,12.213-47.223,24.426-70.832,36.64
	c-169.645,0-339.288,0-508.931,0c-23.611-12.214-47.222-24.427-70.832-36.64C740.961,610.601,957.826,610.601,1174.691,610.601
	L1174.691,610.601z"/>
<path style="fill-rule:evenodd;clip-rule:evenodd;fill:#FAFAFA;" d="M1169.713,613.177c-21.951,11.354-43.902,22.71-65.854,34.065
	c-169.645,0-339.288,0-508.931,0c-21.951-11.355-43.902-22.71-65.853-34.065C742.621,613.177,956.166,613.177,1169.713,613.177
	L1169.713,613.177z"/>
<path style="fill-rule:evenodd;clip-rule:evenodd;fill:#FAFAFA;" d="M1164.734,615.751c-20.291,10.497-40.584,20.993-60.875,31.49
	c-169.645,0-339.288,0-508.931,0c-20.292-10.497-40.583-20.993-60.875-31.49C744.28,615.751,954.508,615.751,1164.734,615.751
	L1164.734,615.751z"/>
<path style="fill-rule:evenodd;clip-rule:evenodd;fill:#FAFAFA;" d="M1159.756,618.327c-18.633,9.638-37.264,19.276-55.896,28.914
	c-169.645,0-339.288,0-508.931,0c-18.632-9.638-37.264-19.276-55.896-28.914C745.939,618.327,952.848,618.327,1159.756,618.327
	L1159.756,618.327z"/>
<path style="fill-rule:evenodd;clip-rule:evenodd;fill:#FCFCFC;" d="M1154.777,620.902c-16.973,8.779-33.945,17.559-50.918,26.339
	c-169.645,0-339.288,0-508.931,0c-16.973-8.78-33.945-17.56-50.918-26.339C747.599,620.902,951.188,620.902,1154.777,620.902
	L1154.777,620.902z"/>
<path style="fill-rule:evenodd;clip-rule:evenodd;fill:#FFFFFF;" d="M1149.799,623.478c-15.314,7.921-30.627,15.842-45.939,23.763
	c-169.645,0-339.288,0-508.931,0c-15.313-7.921-30.626-15.842-45.939-23.763C749.259,623.478,949.529,623.478,1149.799,623.478
	L1149.799,623.478z"/>
<polygon style="fill-rule:evenodd;clip-rule:evenodd;fill:#FFFFFF;" points="1144.82,626.054 1103.859,647.242 594.928,647.242 
	553.968,626.054 1144.82,626.054 "/>
<polygon style="fill-rule:evenodd;clip-rule:evenodd;fill:#FFFFFF;" points="340.463,1169.955 1358.324,1169.955 1358.324,1174.04 
	340.463,1174.04 340.463,1169.955 "/>
<polygon style="fill-rule:evenodd;clip-rule:evenodd;fill:#FFFFFF;" points="340.463,511.526 1358.324,511.526 1358.324,515.611 
	340.463,515.611 340.463,511.526 "/>
<polygon style="fill-rule:evenodd;clip-rule:evenodd;fill:#E6E6E6;" points="1111.756,1042.409 587.032,1042.409 594.928,1038.324 
	1103.859,1038.324 1111.756,1042.409 "/>
<polygon style="fill-rule:evenodd;clip-rule:evenodd;fill:#E6E6E6;" points="1103.861,647.242 594.928,647.242 594.928,643.157 
	1103.859,643.157 1103.861,647.242 "/>
<polygon style="fill-rule:evenodd;clip-rule:evenodd;fill:#E6E6E6;" points="340.464,1169.955 528.024,1072.933 594.928,1038.324 
	603.818,1038.324 349.354,1169.955 340.464,1169.955 "/>
<polygon style="fill-rule:evenodd;clip-rule:evenodd;fill:#E6E6E6;" points="1358.324,1169.955 1170.764,1072.933 
	1103.861,1038.324 1094.971,1038.324 1349.436,1169.955 1358.324,1169.955 "/>
<polygon style="fill-rule:evenodd;clip-rule:evenodd;fill:#E6E6E6;" points="340.464,515.611 528.024,612.633 594.928,647.242 
	603.818,647.242 349.354,515.611 340.464,515.611 "/>
<polygon style="fill-rule:evenodd;clip-rule:evenodd;fill:#E6E6E6;" points="1358.324,515.611 1170.764,612.633 1103.861,647.242 
	1094.971,647.242 1349.436,515.611 1358.324,515.611 "/>
<polygon style="fill-rule:evenodd;clip-rule:evenodd;fill:#FFFFFF;" points="340.463,1169.955 344.548,1169.955 344.548,1289.047 
	340.463,1289.047 340.463,1169.955 "/>
<polygon style="fill-rule:evenodd;clip-rule:evenodd;fill:#FFFFFF;" points="1354.24,1169.955 1358.324,1169.955 1358.324,1289.047 
	1354.24,1289.047 1354.24,1169.955 "/>
<polygon style="fill-rule:evenodd;clip-rule:evenodd;fill:#FFFFFF;" points="340.463,1284.962 1358.324,1284.962 1358.324,1289.047 
	340.463,1289.047 340.463,1284.962 "/>
<polygon style="fill-rule:evenodd;clip-rule:evenodd;fill:#FFFFFF;" points="340.463,515.611 344.548,515.611 344.548,396.52 
	340.463,396.52 340.463,515.611 "/>
<polygon style="fill-rule:evenodd;clip-rule:evenodd;fill:#FFFFFF;" points="1354.24,515.611 1358.324,515.611 1358.324,396.52 
	1354.24,396.52 1354.24,515.611 "/>
<polygon style="fill-rule:evenodd;clip-rule:evenodd;fill:#FFFFFF;" points="340.463,400.604 1358.324,400.604 1358.324,396.52 
	340.463,396.52 340.463,400.604 "/>
<path style="fill-rule:evenodd;clip-rule:evenodd;fill:#4D4D4D;" d="M601.856,1642.275c0,1.334,0.206,2.473,0.623,3.414
	c0.417,0.942,0.988,1.646,1.707,2.121c0.722,0.484,1.512,0.722,2.372,0.722c0.867,0,1.659-0.229,2.374-0.681
	c0.723-0.451,1.295-1.143,1.725-2.079c0.424-0.943,0.635-2.105,0.635-3.497c0-1.323-0.211-2.452-0.635-3.395
	c-0.431-0.95-1.011-1.681-1.739-2.17c-0.733-0.508-1.529-0.751-2.397-0.751c-0.904,0-1.713,0.252-2.426,0.762
	c-0.707,0.514-1.26,1.256-1.65,2.215C602.049,1639.888,601.856,1641.008,601.856,1642.275L601.856,1642.275z M611.567,1649.524
	v-0.49c-0.664,0.766-1.317,1.376-1.961,1.854c-0.645,0.478-1.341,0.838-2.101,1.088c-0.751,0.246-1.577,0.367-2.465,0.367
	c-1.183,0-2.279-0.247-3.283-0.746c-1.006-0.498-1.881-1.215-2.616-2.147c-0.737-0.919-1.295-2.019-1.675-3.274
	c-0.383-1.252-0.571-2.61-0.571-4.071c0-3.084,0.753-5.489,2.261-7.217c1.508-1.723,3.493-2.585,5.953-2.585
	c1.421,0,2.621,0.247,3.601,0.731c0.978,0.486,1.929,1.244,2.856,2.253v-7.29c0-1.015,0.203-1.778,0.609-2.3
	c0.402-0.525,0.979-0.775,1.722-0.775c0.751,0,1.33,0.238,1.729,0.719c0.409,0.473,0.611,1.174,0.611,2.1v21.782
	c0,0.941-0.218,1.648-0.649,2.115c-0.438,0.472-1.001,0.704-1.691,0.704c-0.674,0-1.23-0.235-1.667-0.729
	C611.789,1651.132,611.567,1650.428,611.567,1649.524L611.567,1649.524z"/>
<path style="fill-rule:evenodd;clip-rule:evenodd;fill:#4D4D4D;" d="M625.321,1640.715h8.95c-0.118-1.688-0.573-2.951-1.369-3.787
	c-0.789-0.84-1.831-1.259-3.12-1.259c-1.227,0-2.241,0.419-3.025,1.268C625.966,1637.789,625.485,1639.048,625.321,1640.715
	L625.321,1640.715z M634.975,1643.52h-9.654c0.009,1.123,0.235,2.105,0.673,2.962c0.441,0.863,1.025,1.506,1.76,1.934
	c0.727,0.443,1.529,0.654,2.412,0.654c0.589,0,1.129-0.065,1.62-0.202c0.487-0.133,0.955-0.361,1.417-0.658
	c0.461-0.292,0.882-0.609,1.269-0.946c0.384-0.337,0.881-0.796,1.497-1.37c0.255-0.221,0.617-0.335,1.086-0.335
	c0.505,0,0.914,0.143,1.23,0.42c0.313,0.275,0.472,0.672,0.472,1.174c0,0.448-0.175,0.965-0.523,1.569
	c-0.353,0.595-0.878,1.171-1.588,1.719c-0.699,0.549-1.586,0.997-2.658,1.369c-1.066,0.355-2.292,0.535-3.682,0.535
	c-3.171,0-5.635-0.907-7.397-2.714c-1.761-1.807-2.641-4.26-2.641-7.354c0-1.464,0.217-2.819,0.651-4.068
	c0.437-1.244,1.07-2.32,1.9-3.213c0.834-0.886,1.856-1.569,3.077-2.051c1.216-0.475,2.567-0.71,4.052-0.71
	c1.931,0,3.585,0.399,4.96,1.224c1.389,0.81,2.42,1.859,3.111,3.15c0.687,1.287,1.025,2.608,1.025,3.946
	c0,1.234-0.356,2.05-1.067,2.417C637.263,1643.337,636.269,1643.52,634.975,1643.52L634.975,1643.52z"/>
<path style="fill-rule:evenodd;clip-rule:evenodd;fill:#4D4D4D;" d="M659.108,1645.892c0,1.354-0.333,2.523-0.993,3.49
	c-0.667,0.978-1.646,1.717-2.941,2.215c-1.293,0.499-2.875,0.746-4.728,0.746c-1.774,0-3.294-0.268-4.562-0.811
	c-1.27-0.539-2.199-1.229-2.807-2.033c-0.599-0.814-0.903-1.634-0.903-2.454c0-0.544,0.192-1.007,0.58-1.391
	c0.388-0.388,0.873-0.585,1.468-0.585c0.515,0,0.914,0.133,1.194,0.388c0.276,0.243,0.543,0.604,0.797,1.059
	c0.504,0.883,1.109,1.539,1.813,1.968c0.709,0.44,1.671,0.654,2.891,0.654c0.985,0,1.795-0.22,2.432-0.654
	c0.632-0.443,0.949-0.941,0.949-1.508c0-0.871-0.333-1.508-0.985-1.907c-0.657-0.393-1.739-0.779-3.251-1.137
	c-1.697-0.424-3.082-0.858-4.147-1.33c-1.065-0.464-1.917-1.073-2.558-1.833c-0.64-0.767-0.96-1.692-0.96-2.805
	c0.001-0.985,0.292-1.925,0.887-2.813c0.588-0.873,1.462-1.569,2.61-2.098c1.156-0.527,2.546-0.785,4.168-0.785
	c1.281,0,2.428,0.128,3.446,0.393c1.021,0.267,1.87,0.622,2.554,1.073c0.681,0.443,1.197,0.936,1.553,1.481
	c0.356,0.543,0.535,1.07,0.535,1.59c0,0.566-0.19,1.033-0.57,1.391c-0.378,0.356-0.921,0.543-1.619,0.543
	c-0.507,0-0.939-0.144-1.295-0.428c-0.353-0.288-0.762-0.725-1.221-1.306c-0.372-0.481-0.812-0.874-1.317-1.162
	c-0.51-0.287-1.196-0.437-2.067-0.437c-0.892,0-1.631,0.202-2.222,0.584c-0.591,0.372-0.889,0.847-0.889,1.404
	c0,0.528,0.219,0.951,0.656,1.279c0.436,0.337,1.014,0.613,1.753,0.83c0.733,0.214,1.748,0.478,3.038,0.795
	c1.533,0.375,2.783,0.813,3.755,1.335c0.973,0.519,1.706,1.129,2.206,1.839C658.86,1644.179,659.108,1644.985,659.108,1645.892
	L659.108,1645.892z"/>
<path style="fill-rule:evenodd;clip-rule:evenodd;fill:#4D4D4D;" d="M668.224,1635.064v14.281c0,0.988-0.235,1.733-0.704,2.241
	c-0.468,0.51-1.066,0.757-1.789,0.757c-0.726,0-1.315-0.253-1.765-0.775c-0.455-0.52-0.676-1.264-0.676-2.223v-14.129
	c0-0.974,0.222-1.719,0.676-2.202c0.45-0.499,1.04-0.745,1.765-0.745c0.723,0,1.32,0.246,1.789,0.745
	C667.989,1633.498,668.224,1634.188,668.224,1635.064L668.224,1635.064z M665.785,1629.972c-0.691,0-1.276-0.22-1.762-0.634
	c-0.492-0.422-0.733-1.021-0.733-1.792c0-0.698,0.249-1.279,0.751-1.728c0.498-0.458,1.076-0.681,1.744-0.681
	c0.635,0,1.204,0.202,1.699,0.609c0.493,0.42,0.741,1.016,0.741,1.799c0,0.76-0.241,1.353-0.721,1.786
	C667.02,1629.749,666.446,1629.972,665.785,1629.972L665.785,1629.972z"/>
<path style="fill-rule:evenodd;clip-rule:evenodd;fill:#4D4D4D;" d="M677.18,1642.149c0,1.995,0.435,3.514,1.312,4.537
	c0.875,1.018,2.004,1.535,3.393,1.535c0.82,0,1.598-0.22,2.323-0.657c0.731-0.449,1.326-1.106,1.781-1.994
	c0.465-0.886,0.69-1.961,0.69-3.225c0-2.019-0.444-3.585-1.332-4.705c-0.885-1.127-2.054-1.681-3.5-1.681
	c-1.411,0-2.545,0.53-3.392,1.607C677.604,1638.641,677.18,1640.16,677.18,1642.149L677.18,1642.149z M691.486,1635.887v14.344
	c0,1.635-0.17,3.051-0.524,4.233c-0.347,1.185-0.905,2.153-1.681,2.931c-0.769,0.766-1.779,1.35-3.028,1.719
	c-1.253,0.367-2.804,0.558-4.658,0.558c-1.699,0-3.223-0.237-4.56-0.716c-1.338-0.475-2.369-1.094-3.094-1.842
	c-0.719-0.76-1.08-1.525-1.08-2.329c0-0.604,0.204-1.089,0.613-1.464c0.408-0.39,0.9-0.578,1.48-0.578
	c0.725,0,1.358,0.319,1.902,0.956c0.264,0.325,0.536,0.66,0.822,0.988c0.285,0.325,0.596,0.613,0.942,0.854
	c0.34,0.234,0.757,0.408,1.236,0.52c0.482,0.114,1.037,0.175,1.664,0.175c1.275,0,2.269-0.175,2.977-0.533
	c0.707-0.352,1.197-0.851,1.485-1.49c0.286-0.646,0.44-1.329,0.492-2.051c0.046-0.731,0.09-1.904,0.117-3.521
	c-0.765,1.053-1.642,1.869-2.641,2.421c-0.992,0.554-2.174,0.832-3.551,0.832c-1.649,0-3.095-0.422-4.334-1.272
	c-1.237-0.836-2.185-2.021-2.845-3.544c-0.667-1.52-0.997-3.273-0.997-5.269c0-1.472,0.204-2.813,0.606-4.004
	c0.407-1.197,0.978-2.206,1.725-3.027c0.75-0.824,1.613-1.435,2.592-1.854c0.974-0.407,2.048-0.619,3.22-0.619
	c1.395,0,2.612,0.267,3.635,0.802c1.023,0.534,1.974,1.381,2.861,2.523v-0.669c0-0.85,0.207-1.517,0.633-1.983
	c0.419-0.475,0.962-0.706,1.62-0.706c0.957,0,1.587,0.316,1.902,0.932C691.33,1633.814,691.486,1634.707,691.486,1635.887
	L691.486,1635.887z"/>
<path style="fill-rule:evenodd;clip-rule:evenodd;fill:#4D4D4D;" d="M700.971,1634.994v0.604c0.866-1.153,1.816-1.995,2.85-2.523
	c1.025-0.536,2.212-0.806,3.552-0.806c1.301,0,2.466,0.281,3.492,0.841c1.019,0.569,1.788,1.376,2.296,2.411
	c0.323,0.606,0.534,1.259,0.63,1.951c0.098,0.704,0.148,1.594,0.148,2.676v9.197c0,0.988-0.226,1.733-0.676,2.241
	c-0.455,0.51-1.044,0.757-1.766,0.757c-0.738,0-1.331-0.253-1.791-0.775c-0.456-0.52-0.686-1.264-0.686-2.223v-8.233
	c0-1.621-0.225-2.875-0.678-3.74c-0.451-0.859-1.356-1.291-2.708-1.291c-0.88,0-1.682,0.268-2.405,0.787
	c-0.725,0.516-1.253,1.24-1.592,2.158c-0.238,0.745-0.362,2.121-0.362,4.128v6.191c0,0.994-0.233,1.754-0.696,2.252
	c-0.466,0.499-1.066,0.746-1.801,0.746c-0.709,0-1.295-0.253-1.754-0.775c-0.459-0.52-0.685-1.264-0.685-2.223v-14.281
	c0-0.939,0.204-1.64,0.615-2.103c0.41-0.461,0.968-0.692,1.679-0.692c0.432,0,0.828,0.096,1.175,0.302
	c0.348,0.208,0.631,0.513,0.841,0.927C700.864,1633.906,700.971,1634.404,700.971,1634.994L700.971,1634.994z"/>
<path style="fill-rule:evenodd;clip-rule:evenodd;fill:#4D4D4D;" d="M722.984,1640.715h8.955c-0.123-1.688-0.58-2.951-1.369-3.787
	c-0.788-0.84-1.831-1.259-3.121-1.259c-1.227,0-2.241,0.419-3.03,1.268C723.633,1637.789,723.153,1639.048,722.984,1640.715
	L722.984,1640.715z M732.642,1643.52h-9.658c0.01,1.123,0.233,2.105,0.675,2.962c0.441,0.863,1.028,1.506,1.752,1.934
	c0.732,0.443,1.539,0.654,2.419,0.654c0.593,0,1.129-0.065,1.619-0.202c0.491-0.133,0.958-0.361,1.423-0.658
	c0.458-0.292,0.88-0.609,1.265-0.946c0.387-0.337,0.887-0.796,1.499-1.37c0.257-0.221,0.62-0.335,1.086-0.335
	c0.509,0,0.915,0.143,1.229,0.42c0.313,0.275,0.475,0.672,0.475,1.174c0,0.448-0.175,0.965-0.53,1.569
	c-0.347,0.595-0.877,1.171-1.583,1.719c-0.698,0.549-1.586,0.997-2.657,1.369c-1.063,0.355-2.297,0.535-3.68,0.535
	c-3.174,0-5.635-0.907-7.402-2.714c-1.756-1.807-2.639-4.26-2.639-7.354c0-1.464,0.223-2.819,0.652-4.068
	c0.433-1.244,1.068-2.32,1.902-3.213c0.832-0.886,1.852-1.569,3.071-2.051c1.221-0.475,2.565-0.71,4.056-0.71
	c1.928,0,3.583,0.399,4.963,1.224c1.379,0.81,2.416,1.859,3.105,3.15c0.686,1.287,1.029,2.608,1.029,3.946
	c0,1.234-0.357,2.05-1.067,2.417C734.934,1643.337,733.938,1643.52,732.642,1643.52L732.642,1643.52z"/>
<path style="fill-rule:evenodd;clip-rule:evenodd;fill:#4D4D4D;" d="M744.692,1642.275c0,1.334,0.209,2.473,0.625,3.414
	c0.417,0.942,0.985,1.646,1.707,2.121c0.726,0.484,1.514,0.722,2.367,0.722c0.871,0,1.662-0.229,2.383-0.681
	c0.71-0.451,1.287-1.143,1.718-2.079c0.428-0.943,0.643-2.105,0.643-3.497c0-1.323-0.215-2.452-0.643-3.395
	c-0.431-0.95-1.007-1.681-1.739-2.17c-0.727-0.508-1.529-0.751-2.4-0.751c-0.9,0-1.708,0.252-2.42,0.762
	c-0.714,0.514-1.263,1.256-1.657,2.215C744.885,1639.888,744.692,1641.008,744.692,1642.275L744.692,1642.275z M754.404,1649.524
	v-0.49c-0.666,0.766-1.316,1.376-1.965,1.854c-0.645,0.478-1.345,0.838-2.092,1.088c-0.755,0.246-1.578,0.367-2.471,0.367
	c-1.181,0-2.279-0.247-3.286-0.746c-1.004-0.498-1.876-1.215-2.612-2.147c-0.738-0.919-1.294-2.019-1.674-3.274
	c-0.38-1.252-0.571-2.61-0.571-4.071c0-3.084,0.749-5.489,2.262-7.217c1.51-1.723,3.493-2.585,5.954-2.585
	c1.425,0,2.626,0.247,3.595,0.731c0.979,0.486,1.929,1.244,2.86,2.253v-7.29c0-1.015,0.203-1.778,0.607-2.3
	c0.404-0.525,0.977-0.775,1.729-0.775c0.747,0,1.319,0.238,1.725,0.719c0.403,0.473,0.606,1.174,0.606,2.1v21.782
	c0,0.941-0.215,1.648-0.649,2.115c-0.435,0.472-0.999,0.704-1.681,0.704c-0.678,0-1.235-0.235-1.677-0.729
	C754.623,1651.132,754.404,1650.428,754.404,1649.524L754.404,1649.524z"/>
<path style="fill-rule:evenodd;clip-rule:evenodd;fill:#4D4D4D;" d="M778.085,1642.413c0,1.969,0.448,3.479,1.344,4.532
	c0.901,1.057,2.078,1.587,3.538,1.587c1.241,0,2.312-0.545,3.211-1.622c0.902-1.08,1.346-2.625,1.346-4.635
	c0-1.314-0.184-2.424-0.558-3.374c-0.374-0.935-0.906-1.666-1.594-2.18c-0.682-0.51-1.49-0.762-2.406-0.762
	c-0.94,0-1.774,0.252-2.511,0.762c-0.735,0.514-1.32,1.256-1.742,2.231C778.292,1639.929,778.085,1641.075,778.085,1642.413
	L778.085,1642.413z M777.852,1627.742v7.546c0.926-0.969,1.874-1.705,2.836-2.213c0.97-0.519,2.158-0.771,3.585-0.771
	c1.638,0,3.076,0.393,4.311,1.165c1.237,0.774,2.197,1.9,2.875,3.389c0.687,1.466,1.024,3.224,1.024,5.248
	c0,1.504-0.189,2.872-0.569,4.115c-0.38,1.247-0.934,2.335-1.656,3.247c-0.723,0.915-1.6,1.632-2.631,2.13
	c-1.03,0.499-2.166,0.746-3.408,0.746c-0.761,0-1.474-0.089-2.146-0.268c-0.667-0.182-1.238-0.422-1.708-0.721
	c-0.469-0.291-0.871-0.593-1.21-0.911c-0.324-0.311-0.765-0.782-1.303-1.41v0.49c0,0.93-0.222,1.631-0.674,2.115
	c-0.443,0.472-1.011,0.704-1.7,0.704c-0.697,0-1.257-0.232-1.674-0.704c-0.415-0.484-0.625-1.186-0.625-2.115l0.001-21.571
	c0-0.988,0.204-1.748,0.606-2.261c0.409-0.519,0.967-0.769,1.692-0.769c0.761,0,1.345,0.241,1.756,0.737
	C777.643,1626.149,777.852,1626.842,777.852,1627.742L777.852,1627.742z"/>
<path style="fill-rule:evenodd;clip-rule:evenodd;fill:#4D4D4D;" d="M800.516,1652.962l0.453-1.103l-6.081-15.305
	c-0.372-0.886-0.562-1.525-0.562-1.912c0-0.42,0.112-0.828,0.331-1.185c0.214-0.363,0.512-0.648,0.893-0.862
	c0.378-0.22,0.775-0.325,1.186-0.325c0.712,0,1.246,0.223,1.608,0.674c0.361,0.452,0.687,1.101,0.961,1.945l4.181,12.157
	l3.956-11.307c0.315-0.921,0.604-1.631,0.851-2.153c0.253-0.519,0.525-0.868,0.81-1.044c0.28-0.185,0.68-0.272,1.2-0.272
	c0.375,0,0.732,0.096,1.075,0.302c0.348,0.193,0.609,0.464,0.794,0.801c0.189,0.337,0.283,0.693,0.283,1.066
	c-0.043,0.219-0.128,0.551-0.231,0.971c-0.11,0.431-0.246,0.865-0.403,1.293l-6.438,16.854c-0.555,1.493-1.095,2.646-1.63,3.487
	c-0.526,0.852-1.227,1.497-2.105,1.948c-0.878,0.455-2.054,0.681-3.535,0.681c-1.447,0-2.533-0.161-3.257-0.47
	c-0.723-0.31-1.084-0.883-1.084-1.716c0-0.569,0.17-1.003,0.513-1.314c0.346-0.316,0.853-0.463,1.533-0.463
	c0.26,0,0.523,0.038,0.777,0.111c0.313,0.07,0.583,0.104,0.814,0.104c0.566,0,1.011-0.081,1.334-0.254
	c0.329-0.158,0.623-0.457,0.879-0.873C799.877,1654.382,800.18,1653.77,800.516,1652.962L800.516,1652.962z"/>
<path style="fill-rule:evenodd;clip-rule:evenodd;fill:#4D4D4D;" d="M891.9,1632.7h1.18v-1.484c0-1.546,0.197-2.772,0.594-3.676
	c0.381-0.912,1.049-1.578,1.984-1.992c0.938-0.42,2.215-0.625,3.852-0.625c2.871,0,4.322,0.705,4.322,2.115
	c0,0.452-0.158,0.845-0.459,1.177c-0.301,0.325-0.652,0.492-1.068,0.492c-0.193,0-0.527-0.034-0.996-0.114
	c-0.467-0.07-0.861-0.105-1.191-0.105c-0.896,0-1.467,0.262-1.715,0.783c-0.256,0.528-0.385,1.279-0.385,2.248v1.182h1.213
	c1.885,0,2.826,0.572,2.826,1.701c0,0.804-0.252,1.32-0.75,1.534c-0.504,0.218-1.193,0.338-2.076,0.338h-1.213v13.072
	c0,0.973-0.238,1.719-0.693,2.237c-0.463,0.514-1.064,0.761-1.807,0.761c-0.693,0-1.279-0.247-1.742-0.761
	c-0.463-0.519-0.695-1.265-0.695-2.237v-13.072h-1.357c-0.736,0-1.297-0.173-1.701-0.514c-0.396-0.328-0.6-0.757-0.6-1.285
	C889.422,1633.29,890.256,1632.7,891.9,1632.7L891.9,1632.7z"/>
<path style="fill-rule:evenodd;clip-rule:evenodd;fill:#4D4D4D;" d="M909.543,1645.215v4.131c0,0.994-0.231,1.754-0.703,2.252
	c-0.471,0.499-1.063,0.746-1.797,0.746c-0.699,0-1.291-0.247-1.748-0.757c-0.459-0.508-0.689-1.253-0.689-2.241v-13.747
	c0-2.227,0.799-3.329,2.4-3.329c0.822,0,1.414,0.258,1.777,0.773c0.367,0.514,0.563,1.285,0.598,2.298
	c0.592-1.013,1.199-1.784,1.816-2.298c0.623-0.516,1.451-0.773,2.492-0.773c1.033,0,2.043,0.258,3.018,0.773
	c0.982,0.514,1.463,1.206,1.463,2.057c0,0.613-0.201,1.104-0.621,1.499c-0.42,0.391-0.859,0.584-1.352,0.584
	c-0.178,0-0.613-0.108-1.307-0.325c-0.695-0.232-1.305-0.344-1.842-0.344c-0.719,0-1.313,0.197-1.766,0.581
	c-0.459,0.372-0.818,0.935-1.072,1.684c-0.25,0.748-0.424,1.64-0.523,2.673C909.588,1642.479,909.543,1643.735,909.543,1645.215
	L909.543,1645.215z"/>
<path style="fill-rule:evenodd;clip-rule:evenodd;fill:#4D4D4D;" d="M924.07,1640.715h8.955c-0.129-1.688-0.576-2.951-1.363-3.787
	c-0.791-0.84-1.836-1.259-3.125-1.259c-1.228,0-2.24,0.419-3.037,1.268C924.717,1637.789,924.238,1639.048,924.07,1640.715
	L924.07,1640.715z M933.728,1643.52h-9.658c0.018,1.123,0.238,2.105,0.676,2.962c0.441,0.863,1.019,1.506,1.764,1.934
	c0.725,0.443,1.529,0.654,2.408,0.654c0.592,0,1.131-0.065,1.619-0.202c0.484-0.133,0.965-0.361,1.416-0.658
	c0.463-0.292,0.885-0.609,1.273-0.946c0.381-0.337,0.889-0.796,1.492-1.37c0.258-0.221,0.629-0.335,1.094-0.335
	c0.502,0,0.912,0.143,1.225,0.42c0.313,0.275,0.471,0.672,0.471,1.174c0,0.448-0.17,0.965-0.523,1.569
	c-0.354,0.595-0.877,1.171-1.574,1.719c-0.709,0.549-1.6,0.997-2.668,1.369c-1.068,0.355-2.291,0.535-3.68,0.535
	c-3.176,0-5.644-0.907-7.394-2.714c-1.764-1.807-2.647-4.26-2.647-7.354c0-1.464,0.215-2.819,0.654-4.068
	c0.432-1.244,1.066-2.32,1.894-3.213c0.83-0.886,1.861-1.569,3.082-2.051c1.211-0.475,2.563-0.71,4.053-0.71
	c1.926,0,3.574,0.399,4.953,1.224c1.385,0.81,2.422,1.859,3.109,3.15c0.685,1.287,1.033,2.608,1.033,3.946
	c0.002,1.234-0.354,2.05-1.07,2.417C936.019,1643.337,935.025,1643.52,933.728,1643.52L933.728,1643.52z"/>
<path style="fill-rule:evenodd;clip-rule:evenodd;fill:#4D4D4D;" d="M946.086,1640.715h8.949c-0.127-1.688-0.576-2.951-1.357-3.787
	c-0.797-0.84-1.83-1.259-3.127-1.259c-1.232,0-2.238,0.419-3.029,1.268C946.734,1637.789,946.246,1639.048,946.086,1640.715
	L946.086,1640.715z M955.744,1643.52h-9.658c0.012,1.123,0.24,2.105,0.676,2.962c0.441,0.863,1.027,1.506,1.754,1.934
	c0.736,0.443,1.535,0.654,2.416,0.654c0.592,0,1.125-0.065,1.613-0.202c0.496-0.133,0.969-0.361,1.42-0.658
	c0.463-0.292,0.887-0.609,1.273-0.946c0.389-0.337,0.893-0.796,1.506-1.37c0.252-0.221,0.6-0.335,1.078-0.335
	c0.512,0,0.922,0.143,1.234,0.42c0.307,0.275,0.467,0.672,0.467,1.174c0,0.448-0.172,0.965-0.518,1.569
	c-0.354,0.595-0.887,1.171-1.592,1.719c-0.703,0.549-1.59,0.997-2.652,1.369c-1.076,0.355-2.299,0.535-3.685,0.535
	c-3.168,0-5.635-0.907-7.396-2.714c-1.762-1.807-2.641-4.26-2.641-7.354c0-1.464,0.223-2.819,0.641-4.068
	c0.445-1.244,1.076-2.32,1.906-3.213c0.826-0.886,1.856-1.569,3.08-2.051c1.219-0.475,2.568-0.71,4.043-0.71
	c1.938,0,3.592,0.399,4.973,1.224c1.375,0.81,2.418,1.859,3.105,3.15c0.688,1.287,1.027,2.608,1.027,3.946
	c0,1.234-0.361,2.05-1.07,2.417C958.039,1643.337,957.041,1643.52,955.744,1643.52L955.744,1643.52z"/>
<path style="fill-rule:evenodd;clip-rule:evenodd;fill:#4D4D4D;" d="M977.715,1642.217c0-1.306-0.189-2.42-0.592-3.356
	c-0.4-0.936-0.943-1.66-1.652-2.149c-0.703-0.508-1.484-0.751-2.34-0.751c-1.357,0-2.512,0.53-3.445,1.607
	c-0.938,1.073-1.41,2.651-1.41,4.743c0,1.96,0.467,3.485,1.4,4.579c0.922,1.098,2.076,1.643,3.455,1.643
	c0.822,0,1.58-0.237,2.277-0.722c0.699-0.475,1.26-1.179,1.68-2.139C977.504,1644.719,977.715,1643.566,977.715,1642.217
	L977.715,1642.217z M968.043,1635.029v0.599c0.939-1.142,1.896-1.988,2.9-2.523c0.998-0.534,2.133-0.802,3.395-0.802
	c1.519,0,2.916,0.393,4.199,1.174c1.281,0.789,2.289,1.931,3.035,3.438c0.732,1.502,1.105,3.285,1.105,5.359
	c0,1.514-0.217,2.907-0.641,4.183c-0.43,1.267-1.012,2.343-1.764,3.2c-0.748,0.857-1.627,1.531-2.643,1.995
	c-1.021,0.463-2.125,0.689-3.293,0.689c-1.406,0-2.596-0.282-3.551-0.851c-0.963-0.563-1.873-1.388-2.744-2.494v7.416
	c0,2.174-0.795,3.256-2.361,3.256c-0.935,0-1.545-0.281-1.854-0.843c-0.301-0.557-0.445-1.381-0.445-2.452v-21.311
	c0-0.939,0.207-1.64,0.607-2.103c0.414-0.461,0.973-0.692,1.691-0.692c0.693,0,1.264,0.231,1.703,0.709
	C967.826,1633.457,968.043,1634.144,968.043,1635.029L968.043,1635.029z"/>
<path style="fill-rule:evenodd;clip-rule:evenodd;fill:#4D4D4D;" d="M991.58,1635.064v14.281c0,0.988-0.24,1.733-0.709,2.241
	c-0.469,0.51-1.061,0.757-1.789,0.757c-0.725,0-1.305-0.253-1.764-0.775c-0.453-0.52-0.676-1.264-0.676-2.223v-14.129
	c0-0.974,0.223-1.719,0.676-2.202c0.459-0.499,1.039-0.745,1.764-0.745c0.729,0,1.32,0.246,1.789,0.745
	C991.34,1633.498,991.58,1634.188,991.58,1635.064L991.58,1635.064z M989.144,1629.972c-0.693,0-1.291-0.22-1.771-0.634
	c-0.482-0.422-0.73-1.021-0.73-1.792c0-0.698,0.252-1.279,0.75-1.728c0.496-0.458,1.082-0.681,1.752-0.681
	c0.631,0,1.201,0.202,1.697,0.609c0.492,0.42,0.738,1.016,0.738,1.799c0,0.76-0.242,1.353-0.723,1.786
	C990.377,1629.749,989.799,1629.972,989.144,1629.972L989.144,1629.972z"/>
<path style="fill-rule:evenodd;clip-rule:evenodd;fill:#4D4D4D;" d="M1008.986,1650.081l-4.369-7.16l-2.68,2.537v3.925
	c0,0.951-0.24,1.682-0.734,2.2c-0.514,0.514-1.088,0.761-1.729,0.761c-0.766,0-1.363-0.247-1.795-0.757
	c-0.44-0.508-0.652-1.253-0.652-2.241v-21.058c0-1.1,0.201-1.937,0.625-2.505c0.432-0.575,1.033-0.86,1.822-0.86
	c0.758,0,1.356,0.25,1.805,0.775c0.443,0.521,0.658,1.285,0.658,2.3v11.977l5.56-5.832c0.692-0.719,1.211-1.215,1.567-1.481
	c0.369-0.265,0.81-0.393,1.324-0.393c0.621,0,1.127,0.187,1.547,0.586c0.4,0.393,0.613,0.88,0.613,1.473
	c0,0.722-0.672,1.693-2.014,2.898l-2.615,2.399l5.059,7.965c0.383,0.59,0.648,1.041,0.805,1.343
	c0.168,0.307,0.242,0.605,0.242,0.875c0,0.792-0.207,1.405-0.643,1.862c-0.426,0.446-0.996,0.673-1.685,0.673
	c-0.606,0-1.072-0.159-1.397-0.484C1009.981,1651.533,1009.537,1650.938,1008.986,1650.081L1008.986,1650.081z"/>
<path style="fill-rule:evenodd;clip-rule:evenodd;fill:#4D4D4D;" d="M1021.191,1652.344c-0.746,0-1.389-0.235-1.93-0.725
	c-0.543-0.479-0.826-1.153-0.826-2.03c0-0.727,0.268-1.364,0.781-1.895c0.525-0.528,1.168-0.789,1.924-0.789
	c0.758,0,1.402,0.261,1.941,0.781c0.535,0.523,0.805,1.157,0.805,1.903c0.002,0.865-0.27,1.543-0.805,2.026
	C1022.543,1652.108,1021.918,1652.344,1021.191,1652.344L1021.191,1652.344z"/>
<path style="fill-rule:evenodd;clip-rule:evenodd;fill:#4D4D4D;" d="M1047.229,1646.229c0,0.619-0.189,1.273-0.559,1.974
	c-0.367,0.704-0.924,1.364-1.674,2.004c-0.754,0.631-1.709,1.139-2.848,1.519c-1.15,0.391-2.445,0.581-3.879,0.581
	c-3.053,0-5.43-0.892-7.145-2.669c-1.709-1.772-2.572-4.16-2.572-7.146c0-2.038,0.396-3.825,1.18-5.383
	c0.779-1.552,1.922-2.755,3.408-3.6c1.479-0.853,3.25-1.276,5.311-1.276c1.277,0,2.445,0.183,3.518,0.556
	c1.072,0.377,1.971,0.851,2.715,1.454c0.74,0.584,1.309,1.215,1.703,1.884c0.391,0.674,0.584,1.297,0.584,1.874
	c0,0.596-0.221,1.098-0.664,1.505c-0.436,0.408-0.971,0.61-1.596,0.61c-0.414,0-0.76-0.107-1.027-0.313
	c-0.266-0.209-0.574-0.546-0.906-1.024c-0.607-0.912-1.236-1.604-1.893-2.063c-0.654-0.457-1.494-0.681-2.502-0.681
	c-1.461,0-2.635,0.563-3.527,1.708c-0.889,1.138-1.346,2.69-1.346,4.67c0,0.93,0.111,1.786,0.348,2.565
	c0.227,0.773,0.559,1.435,0.998,1.991c0.42,0.54,0.959,0.962,1.568,1.24c0.615,0.288,1.297,0.432,2.027,0.432
	c0.979,0,1.836-0.237,2.541-0.69c0.709-0.463,1.328-1.152,1.875-2.101c0.301-0.557,0.631-0.988,0.979-1.299
	c0.346-0.318,0.773-0.47,1.277-0.47c0.613,0,1.105,0.229,1.506,0.687C1047.021,1645.229,1047.229,1645.716,1047.229,1646.229
	L1047.229,1646.229z"/>
<path style="fill-rule:evenodd;clip-rule:evenodd;fill:#4D4D4D;" d="M1065.066,1642.311c0-2.019-0.453-3.585-1.338-4.706
	c-0.883-1.123-2.068-1.687-3.576-1.687c-0.959,0-1.809,0.249-2.549,0.748c-0.727,0.508-1.297,1.244-1.703,2.215
	c-0.389,0.982-0.592,2.127-0.592,3.43c0,1.291,0.195,2.414,0.592,3.379c0.391,0.965,0.949,1.699,1.676,2.215
	c0.734,0.511,1.594,0.764,2.576,0.764c1.508,0,2.693-0.557,3.576-1.69C1064.613,1645.85,1065.066,1644.291,1065.066,1642.311
	L1065.066,1642.311z M1070.016,1642.311c0,1.463-0.221,2.822-0.684,4.06c-0.463,1.25-1.131,2.315-1.996,3.203
	c-0.867,0.893-1.896,1.582-3.105,2.066c-1.211,0.472-2.57,0.704-4.078,0.704c-1.484,0-2.834-0.235-4.033-0.725
	c-1.186-0.479-2.219-1.165-3.102-2.066c-0.869-0.9-1.535-1.962-1.977-3.183c-0.459-1.226-0.688-2.581-0.688-4.06
	c0-1.499,0.227-2.867,0.699-4.113c0.447-1.238,1.109-2.303,1.955-3.182c0.859-0.877,1.898-1.558,3.111-2.036
	c1.227-0.478,2.566-0.709,4.033-0.709c1.508,0,2.859,0.246,4.078,0.715c1.215,0.484,2.26,1.168,3.127,2.066
	c0.875,0.897,1.529,1.957,1.977,3.188C1069.795,1639.471,1070.016,1640.823,1070.016,1642.311L1070.016,1642.311z"/>
<path style="fill-rule:evenodd;clip-rule:evenodd;fill:#4D4D4D;" d="M1090.336,1642.669v6.561c0,1.039-0.238,1.818-0.711,2.338
	c-0.465,0.522-1.09,0.775-1.863,0.775c-0.746,0-1.354-0.253-1.814-0.775c-0.467-0.52-0.701-1.299-0.701-2.338v-7.867
	c0-1.247-0.045-2.194-0.125-2.89c-0.084-0.692-0.313-1.256-0.689-1.693c-0.369-0.442-0.963-0.653-1.771-0.653
	c-1.613,0-2.676,0.548-3.184,1.654c-0.514,1.111-0.77,2.701-0.77,4.778v6.671c0,1.029-0.24,1.798-0.709,2.326
	c-0.453,0.525-1.07,0.787-1.83,0.787c-0.744,0-1.354-0.262-1.838-0.787c-0.479-0.528-0.715-1.297-0.715-2.326V1635.1
	c0-0.921,0.217-1.631,0.643-2.115c0.432-0.469,0.998-0.715,1.691-0.715c0.676,0,1.244,0.223,1.691,0.674
	c0.457,0.452,0.68,1.082,0.68,1.875v0.47c0.861-1.021,1.775-1.778,2.75-2.266c0.98-0.472,2.064-0.719,3.254-0.719
	c1.246,0,2.313,0.247,3.199,0.739c0.895,0.496,1.637,1.244,2.211,2.245c0.832-1.009,1.727-1.767,2.68-2.253
	c0.949-0.484,2.006-0.731,3.17-0.731c1.346,0,2.51,0.267,3.482,0.79c0.98,0.546,1.705,1.297,2.186,2.279
	c0.432,0.9,0.639,2.305,0.639,4.221v9.637c0,1.039-0.242,1.818-0.711,2.338c-0.459,0.522-1.078,0.775-1.859,0.775
	c-0.738,0-1.357-0.262-1.83-0.787c-0.484-0.528-0.719-1.297-0.719-2.326v-8.302c0-1.053-0.041-1.907-0.131-2.555
	c-0.1-0.631-0.336-1.174-0.736-1.603c-0.396-0.433-1.004-0.644-1.811-0.644c-0.652,0-1.264,0.19-1.852,0.574
	c-0.58,0.382-1.039,0.903-1.369,1.555C1090.512,1639.086,1090.336,1640.554,1090.336,1642.669L1090.336,1642.669z"/>
<path style="fill-rule:evenodd;clip-rule:evenodd;fill:#4D4D4D;" d="M852.99,1619.537c-0.1-0.322-0.205-0.633-0.307-0.95
	c1.654-0.152,2.771-2.142,1.959-3.614c-0.395-0.882-1.301-1.354-2.211-1.373h-0.107c-0.768,0.014-1.525,0.35-1.967,1.033
	c-1.057,1.34-0.235,3.47,1.387,3.907c0.098,0.331,0.193,0.675,0.297,1.023c-2.488,0.161-5.025,0.719-7.112,2.139
	c0.215,0.59,0.432,1.2,0.643,1.813c4.21-1.849,8.93-1.449,13.367-1.007c0.146-0.584,0.295-1.173,0.447-1.757
	C857.377,1619.849,855.174,1619.517,852.99,1619.537L852.99,1619.537z"/>
<path style="fill-rule:evenodd;clip-rule:evenodd;fill:#4D4D4D;" d="M878.019,1626.326c-0.662,0.343-0.791,1.144-0.748,1.813
	c-0.746,0.722-0.393,1.807-0.473,2.71c-0.166,0.505-0.773,0.563-1.197,0.751c-0.58-0.879-1.197-1.733-1.979-2.458l0.008-0.041
	c-0.85-0.795-1.766-1.519-2.736-2.149c-0.775,0.836-1.594,1.654-2.338,2.523c1.479,1.631,2.848,3.379,4.059,5.218
	c0.838,1.406,1.506,2.896,2.084,4.422c1.252-0.64,2.486-1.309,3.742-1.975c-0.662-1.519-1.412-3.013-2.221-4.476
	c0.559-0.297,1.301-0.584,1.385-1.309c0.064-0.801-0.113-1.666,0.365-2.367c0.967,0.634,2.438-0.076,2.451-1.256
	C880.551,1626.513,879.019,1625.642,878.019,1626.326L878.019,1626.326z"/>
<path style="fill-rule:evenodd;clip-rule:evenodd;fill:#4D4D4D;" d="M868.207,1636.452c-0.297,2.039-2.24,3.764-4.324,3.629
	c-1.203,0.099-2.361-0.47-3.18-1.32c-0.586-0.728-1.07-1.566-1.15-2.523c-0.283-2.065,1.174-4.201,3.195-4.685
	c0.889-0.261,1.824-0.12,2.701,0.092C867.353,1632.318,868.6,1634.47,868.207,1636.452L868.207,1636.452z M849.917,1640.75
	c-0.821,1.188-1.992,2.105-3.338,2.628c-2.539,0.944-5.627,0.296-7.455-1.722c-1.273-1.405-2.03-3.297-1.893-5.204
	c0.099-2.379,1.569-4.597,3.658-5.709c1.591-0.862,3.509-1.015,5.249-0.527c0.727,0.185,1.396,0.521,2.018,0.941
	c1.285,0.906,2.25,2.25,2.678,3.77C851.434,1636.878,851.053,1639.063,849.917,1640.75L849.917,1640.75z M871.258,1635.408
	c-1.631-2.705-3.396-5.396-5.797-7.48c-2.766-2.44-6.375-4.078-10.105-4.063c-4.717-0.056-9.496,0.704-13.837,2.596
	c-4.1,1.805-7.659,5.014-9.461,9.159c-1.739,3.726-1.718,8.017-0.934,11.98c4.342,1.086,8.755,2.054,13.234,2.262
	c4.415,0.135,8.866,0.246,13.25-0.375c6.029-0.79,11.943-2.696,17.197-5.779C874.805,1643.707,874.086,1639.738,871.258,1635.408
	L871.258,1635.408z"/>
<path style="fill-rule:evenodd;clip-rule:evenodd;fill:#4D4D4D;" d="M832.11,1629.367c-1.765,1.066-3.214,2.565-4.422,4.219
	c-0.354-0.657-0.462-1.438-0.923-2.024c-0.262-0.352-0.733-0.208-1.101-0.214c-0.468,0.05-0.921-0.076-1.363-0.211
	c0.513-0.728,0.38-1.839-0.413-2.313c-0.843-0.609-2.15-0.081-2.373,0.925c-0.354,1.1,0.817,2.203,1.898,1.916
	c0.572,0.851,1.606,0.71,2.49,0.742c0.396,0.687,0.701,1.443,1.207,2.067c-0.946,1.863-1.48,3.949-1.521,6.043
	c1.214,0.505,2.424,1.027,3.646,1.532c0.06-1.327,0.211-2.635,0.413-3.926c0.408-2.836,2.047-5.301,3.991-7.33
	C833.153,1630.286,832.616,1629.846,832.11,1629.367L832.11,1629.367z"/>
<path style="fill-rule:evenodd;clip-rule:evenodd;fill:#4D4D4D;" d="M860.492,1650.726c-4.477,0.978-9.092,1.265-13.665,1.066
	c-3.092-0.158-6.183-0.446-9.209-1.115c-2.139-0.434-4.236-1.053-6.345-1.657c0.338,2.689,1.426,5.266,2.979,7.483
	c1.833,2.578,4.283,4.945,7.335,5.899c2.233,0.6,4.872,1.358,9.219,1.379h0.441l0.451-0.006c4.045-0.071,8.022-0.584,11.57-2.095
	c2.289-0.983,4.436-2.326,6.281-4.004c1.59-1.502,2.84-3.374,3.701-5.384c0.834-1.897,1.582-5.315,1.502-7.06
	C870.375,1647.724,865.478,1649.892,860.492,1650.726L860.492,1650.726z"/>
</svg>
